<svg width="14" height="15" viewBox="0 0 14 15" fill="none" xmlns="http://www.w3.org/2000/svg">
<path d="M9.25046 2.02441H4.51709C2.46106 2.02441 1.23535 3.25012 1.23535 5.30615V10.0339C1.23535 12.0956 2.46106 13.3213 4.51709 13.3213H9.24482C11.3008 13.3213 12.5266 12.0956 12.5266 10.0395V5.30615C12.5322 3.25012 11.3065 2.02441 9.25046 2.02441ZM4.41541 11.1466C4.41541 11.3782 4.22337 11.5702 3.99178 11.5702C3.7602 11.5702 3.56815 11.3782 3.56815 11.1466V9.97739C3.56815 9.74581 3.7602 9.55376 3.99178 9.55376C4.22337 9.55376 4.41541 9.74581 4.41541 9.97739V11.1466ZM7.30741 11.1466C7.30741 11.3782 7.11536 11.5702 6.88377 11.5702C6.65219 11.5702 6.46014 11.3782 6.46014 11.1466V8.80252C6.46014 8.57094 6.65219 8.37889 6.88377 8.37889C7.11536 8.37889 7.30741 8.57094 7.30741 8.80252V11.1466ZM10.1994 11.1466C10.1994 11.3782 10.0074 11.5702 9.77577 11.5702C9.54418 11.5702 9.35214 11.3782 9.35214 11.1466V7.6333C9.35214 7.40171 9.54418 7.20967 9.77577 7.20967C10.0074 7.20967 10.1994 7.40171 10.1994 7.6333V11.1466ZM10.1994 5.8484C10.1994 6.07998 10.0074 6.27203 9.77577 6.27203C9.54418 6.27203 9.35214 6.07998 9.35214 5.8484V5.3005C7.91179 6.78039 6.10994 7.82535 4.09345 8.32805C4.05956 8.33935 4.02567 8.33935 3.99178 8.33935C3.79974 8.33935 3.63028 8.20944 3.57945 8.01739C3.52296 7.79145 3.65853 7.55987 3.89011 7.50338C5.79363 7.02892 7.48816 6.02915 8.83248 4.61704H8.12643C7.89484 4.61704 7.7028 4.42499 7.7028 4.19341C7.7028 3.96182 7.89484 3.76978 8.12643 3.76978H9.78142C9.80401 3.76978 9.82096 3.78107 9.84355 3.78107C9.87179 3.78672 9.90003 3.78672 9.92828 3.79802C9.95652 3.80932 9.97911 3.82626 10.0074 3.84321C10.0243 3.8545 10.0412 3.86015 10.0582 3.87145C10.0638 3.8771 10.0638 3.88275 10.0695 3.88275C10.0921 3.90534 10.109 3.92793 10.126 3.95053C10.1429 3.97312 10.1599 3.99007 10.1655 4.01266C10.1768 4.03525 10.1768 4.05785 10.1825 4.08609C10.1881 4.11433 10.1994 4.14257 10.1994 4.17646C10.1994 4.18211 10.205 4.18776 10.205 4.19341V5.8484H10.1994Z" fill="#1B1B1B"/>
</svg>
