<svg width="80" height="81" viewBox="0 0 80 81" fill="none" xmlns="http://www.w3.org/2000/svg">
<g clip-path="url(#clip0_5763_32246)">
<path d="M13.3342 64.8429H4.44531V80.3984H13.3342V64.8429Z" fill="#0052B4"/>
<path d="M13.3342 49.2873H4.44531V64.8429H13.3342V49.2873Z" fill="#006DF0"/>
<path d="M74.8389 57.9802C73.4144 55.6147 70.342 54.8518 67.976 56.2762L51.834 64.5235C52.7593 63.6162 53.334 62.3522 53.334 60.9538C53.334 58.1922 51.0953 55.9538 48.334 55.9538H33.176C26.8895 55.954 23.9269 51.5096 13.334 51.5096C13.334 62.6973 13.334 73.7318 13.334 73.7318C13.334 73.7318 16.2229 75.7318 20.0007 78.1762C23.3718 80.3573 24.9542 80.3984 27.5202 80.3984L44.0749 80.3924C46.1487 80.3924 48.2229 79.5096 50.5193 78.3984C52.8158 77.2873 73.1349 64.8429 73.1349 64.8429C75.5007 63.4182 76.2633 60.346 74.8389 57.9802Z" fill="#FFD6A0"/>
<path d="M13.334 51.5096V73.7318C13.334 73.7318 16.2231 75.7318 20.0009 78.1762C23.372 80.3573 24.9542 80.3984 27.5202 80.3984L37.7787 80.3947L13.334 51.5096Z" fill="#FFC170"/>
<path d="M37.7781 0.398438L44.4188 17.0551L62.3121 18.2235L48.5228 29.6862L52.941 47.0651L37.7781 37.4929L22.6155 47.0651L27.0335 29.6862L13.2441 18.2235L31.1375 17.0551L37.7781 0.398438Z" fill="#FFDA44"/>
<path d="M37.7781 0.398438V37.4929L22.6155 47.0651L27.0335 29.6862L13.2441 18.2235L31.1375 17.0551L37.7781 0.398438Z" fill="#FF9811"/>
</g>
<defs>
<clipPath id="clip0_5763_32246">
<rect width="80" height="80" fill="white" transform="translate(0 0.398438)"/>
</clipPath>
</defs>
</svg>
