<svg width="81" height="81" viewBox="0 0 81 81" fill="none" xmlns="http://www.w3.org/2000/svg">
<g clip-path="url(#clip0_5763_31749)">
<path d="M43.6431 5.92859H37.3574V35.2619H43.6431V5.92859Z" fill="#0052B4"/>
<path d="M59.3574 18.5H37.3574V5.92859H59.3574L55.167 12.2143L59.3574 18.5Z" fill="#FF9811"/>
<path d="M59.3574 18.5H37.3574L59.3574 5.92859L55.167 12.2143L59.3574 18.5Z" fill="#FF5023"/>
<path d="M11.166 75.0715H69.8327L40.4994 28.9762L11.166 75.0715Z" fill="#0052B4"/>
<path d="M40.5 75.0715H69.8333L40.5 28.9762V75.0715Z" fill="#006DF0"/>
<path d="M51.1653 45.7381L40.4987 28.9762L29.832 45.7381H51.1653Z" fill="#78B9EB"/>
<path d="M51.1667 45.7381L40.5 28.9762V45.7381H51.1667Z" fill="#AED5F3"/>
<path d="M40.5 75.0715H80.5L60.4999 43.6429L40.5 75.0715Z" fill="#0052B4"/>
<path d="M60.5 75.0715H80.5001L60.5 43.6429V75.0715Z" fill="#006DF0"/>
<path d="M67.7719 55.0716L60.4991 43.6429L53.2266 55.0716H67.7719Z" fill="#78B9EB"/>
<path d="M67.7728 55.0716L60.5 43.6429V55.0716H67.7728Z" fill="#AED5F3"/>
<path d="M0.5 75.0715H40.5L20.4999 43.6429L0.5 75.0715Z" fill="#0052B4"/>
<path d="M20.5 75.0715H40.5001L20.5 43.6429V75.0715Z" fill="#006DF0"/>
<path d="M27.7719 55.0716L20.4991 43.6429L13.2266 55.0716H27.7719Z" fill="#78B9EB"/>
<path d="M27.7728 55.0716L20.5 43.6429V55.0716H27.7728Z" fill="#AED5F3"/>
</g>
<defs>
<clipPath id="clip0_5763_31749">
<rect width="80" height="80" fill="white" transform="translate(0.5 0.5)"/>
</clipPath>
</defs>
</svg>
