<svg width="21" height="21" viewBox="0 0 21 21" xmlns="http://www.w3.org/2000/svg">
<path fill-rule="evenodd" clip-rule="evenodd" d="M10.5 1.1394C9.11929 1.1394 8 2.25869 8 3.6394V6.52675L3.74217 9.36531C3.2785 9.67442 3 10.1948 3 10.7521V12.4832C3 13.6208 4.11449 14.4241 5.19371 14.0644L8 13.1289V14.9609L6.33333 16.6276C5.28339 17.6775 6.027 19.4727 7.51184 19.4727H8.73075C8.86701 19.4727 9.00277 19.456 9.13497 19.423L10.5 19.0817L11.865 19.423C11.9972 19.456 12.133 19.4727 12.2693 19.4727H13.4882C14.973 19.4727 15.7166 17.6775 14.6667 16.6276L13 14.9609V13.1289L15.8063 14.0644C16.8855 14.4241 18 13.6208 18 12.4832V10.7521C18 10.1948 17.7215 9.67442 17.2578 9.36531L13 6.52675V3.6394C13 2.25869 11.8807 1.1394 10.5 1.1394ZM9.66667 3.6394C9.66667 3.17917 10.0398 2.80607 10.5 2.80607C10.9602 2.80607 11.3333 3.17917 11.3333 3.6394V6.52675C11.3333 7.08401 11.6118 7.60439 12.0755 7.9135L16.3333 10.7521V12.4832L13.527 11.5478C12.4478 11.188 11.3333 11.9913 11.3333 13.1289V14.9609C11.3333 15.4029 11.5089 15.8268 11.8215 16.1394L13.4882 17.8061H12.2693L10.9042 17.4648C10.6388 17.3985 10.3612 17.3985 10.0958 17.4648L8.73075 17.8061H7.51185L9.17851 16.1394C9.49107 15.8268 9.66667 15.4029 9.66667 14.9609V13.1289C9.66667 11.9913 8.55217 11.188 7.47295 11.5478L4.66667 12.4832V10.7521L8.9245 7.9135C9.38816 7.60439 9.66667 7.08401 9.66667 6.52675V3.6394Z"/>
</svg>
