<svg width="18" height="18" viewBox="0 0 18 18" xmlns="http://www.w3.org/2000/svg">
<path fill-rule="evenodd" clip-rule="evenodd" d="M0.664062 6.38932C0.664062 7.53992 1.5968 8.47266 2.7474 8.47266L15.2474 8.47266C16.398 8.47266 17.3307 7.53992 17.3307 6.38932V3.05599C17.3307 1.9054 16.398 0.972656 15.2474 0.972656H2.7474C1.5968 0.972656 0.664062 1.9054 0.664062 3.05599V6.38932ZM2.7474 6.80599C2.51728 6.80599 2.33073 6.61944 2.33073 6.38932L2.33073 3.05599C2.33073 2.82587 2.51728 2.63932 2.7474 2.63932L15.2474 2.63932C15.4775 2.63932 15.6641 2.82587 15.6641 3.05599V6.38932C15.6641 6.61944 15.4775 6.80599 15.2474 6.80599L2.7474 6.80599Z" />
<path fill-rule="evenodd" clip-rule="evenodd" d="M2.7474 17.6393C1.5968 17.6393 0.664062 16.7066 0.664062 15.556V11.3893C0.664062 10.2387 1.5968 9.30599 2.7474 9.30599H6.08073C7.23132 9.30599 8.16406 10.2387 8.16406 11.3893V15.556C8.16406 16.7066 7.23132 17.6393 6.08073 17.6393H2.7474ZM2.33073 15.556C2.33073 15.7861 2.51728 15.9727 2.7474 15.9727H6.08073C6.31085 15.9727 6.4974 15.7861 6.4974 15.556V11.3893C6.4974 11.1592 6.31085 10.9727 6.08073 10.9727H2.7474C2.51728 10.9727 2.33073 11.1592 2.33073 11.3893L2.33073 15.556Z" />
<path fill-rule="evenodd" clip-rule="evenodd" d="M11.9141 17.6393C10.7635 17.6393 9.83073 16.7066 9.83073 15.556V11.3893C9.83073 10.2387 10.7635 9.30599 11.9141 9.30599H15.2474C16.398 9.30599 17.3307 10.2387 17.3307 11.3893V15.556C17.3307 16.7066 16.398 17.6393 15.2474 17.6393H11.9141ZM11.4974 15.556C11.4974 15.7861 11.6839 15.9727 11.9141 15.9727H15.2474C15.4775 15.9727 15.6641 15.7861 15.6641 15.556V11.3893C15.6641 11.1592 15.4775 10.9727 15.2474 10.9727H11.9141C11.6839 10.9727 11.4974 11.1592 11.4974 11.3893V15.556Z" />
</svg>
