<svg width="21" height="21" viewBox="0 0 21 21" xmlns="http://www.w3.org/2000/svg">
<path fill-rule="evenodd" clip-rule="evenodd" d="M13.417 1.9729C12.2664 1.9729 11.3337 2.90564 11.3337 4.05623V16.5562C11.3337 17.7068 12.2664 18.6396 13.417 18.6396H16.7503C17.9009 18.6396 18.8337 17.7068 18.8337 16.5562V4.05623C18.8337 2.90564 17.9009 1.9729 16.7503 1.9729H13.417ZM13.0003 4.05623C13.0003 3.82612 13.1869 3.63957 13.417 3.63957H16.7503C16.9804 3.63957 17.167 3.82612 17.167 4.05623V16.5562C17.167 16.7864 16.9804 16.9729 16.7503 16.9729H13.417C13.1869 16.9729 13.0003 16.7864 13.0003 16.5562V4.05623Z" />
<path fill-rule="evenodd" clip-rule="evenodd" d="M4.25033 9.4729C3.09973 9.4729 2.16699 10.4056 2.16699 11.5562V16.5562C2.16699 17.7068 3.09973 18.6396 4.25033 18.6396H7.58366C8.73425 18.6396 9.66699 17.7068 9.66699 16.5562V11.5562C9.66699 10.4056 8.73425 9.4729 7.58366 9.4729H4.25033ZM3.83366 11.5562C3.83366 11.3261 4.02021 11.1396 4.25033 11.1396H7.58366C7.81378 11.1396 8.00033 11.3261 8.00033 11.5562V16.5562C8.00033 16.7864 7.81378 16.9729 7.58366 16.9729H4.25033C4.02021 16.9729 3.83366 16.7864 3.83366 16.5562V11.5562Z" />
</svg>
