<svg width="13" height="11" viewBox="0 0 13 11" xmlns="http://www.w3.org/2000/svg">
<path d="M4.72469 0.843756C5.41211 0.627429 6.02366 0.4502 6.37344 0.351028C6.57691 0.293337 6.78657 0.295958 6.98868 0.358254C7.92581 0.647104 10.7565 1.54131 11.8718 2.13866L9.89866 2.96943L4.72469 0.843756Z" />
<path d="M3.48861 1.25191C2.6669 1.53842 1.88763 1.84686 1.43551 2.11757C1.45062 2.12203 1.46564 2.12737 1.4805 2.13363L6.6821 4.32372L8.79756 3.43303L3.48861 1.25191Z" />
<path d="M0.97324 2.77297C0.840271 3.70985 0.943055 6.64188 1.00102 8.01476C1.01964 8.4558 1.2964 8.84241 1.70626 9.00635L6.26258 10.8289C6.26693 10.8306 6.27128 10.8323 6.27565 10.834C6.26447 10.796 6.25847 10.7558 6.25847 10.7142V5.06466L1.15172 2.9145C1.0777 2.88333 1.01716 2.83359 0.97324 2.77297Z" />
<path d="M7.08855 10.834C7.09293 10.8323 7.09731 10.8306 7.10169 10.8289L11.658 9.00635C12.0679 8.84241 12.3446 8.45581 12.3633 8.01478C12.4212 6.64187 12.5241 3.70974 12.391 2.77292C12.3471 2.83356 12.2866 2.88333 12.2125 2.9145L7.10573 5.06466V10.7142C7.10573 10.7558 7.09973 10.796 7.08855 10.834Z" />
</svg>
