<svg width="16" height="16" viewBox="0 0 16 16" xmlns="http://www.w3.org/2000/svg">
<path d="M3.33594 11.6667C3.33594 11.2985 3.63441 11 4.0026 11H8.66927C9.03746 11 9.33594 11.2985 9.33594 11.6667C9.33594 12.0349 9.03746 12.3333 8.66927 12.3333H4.0026C3.63441 12.3333 3.33594 12.0349 3.33594 11.6667Z" />
<path d="M10.6693 11C10.3011 11 10.0026 11.2985 10.0026 11.6667C10.0026 12.0349 10.3011 12.3333 10.6693 12.3333H12.0026C12.3708 12.3333 12.6693 12.0349 12.6693 11.6667C12.6693 11.2985 12.3708 11 12.0026 11H10.6693Z" />
<path fillRule="evenodd" clipRule="evenodd" d="M5.33594 1C5.70413 1 6.0026 1.29848 6.0026 1.66667V2.33333H10.0026V1.66667C10.0026 1.29848 10.3011 1 10.6693 1C11.0375 1 11.3359 1.29848 11.3359 1.66667V2.33333H12.0026C13.4754 2.33333 14.6693 3.52724 14.6693 5V12.3333C14.6693 13.8061 13.4754 15 12.0026 15H4.0026C2.52985 15 1.33594 13.8061 1.33594 12.3333V5C1.33594 3.52724 2.52984 2.33333 4.0026 2.33333H4.66927V1.66667C4.66927 1.29848 4.96775 1 5.33594 1ZM10.0026 3.66667C10.0026 4.03486 10.3011 4.33333 10.6693 4.33333C11.0375 4.33333 11.3359 4.03486 11.3359 3.66667H12.0026C12.739 3.66667 13.3359 4.26362 13.3359 5V5.33333H2.66927V5C2.66927 4.26362 3.26622 3.66667 4.0026 3.66667H4.66927C4.66927 4.03486 4.96775 4.33333 5.33594 4.33333C5.70413 4.33333 6.0026 4.03486 6.0026 3.66667H10.0026ZM13.3359 6.66667H2.66927V12.3333C2.66927 13.0697 3.26622 13.6667 4.0026 13.6667H12.0026C12.739 13.6667 13.3359 13.0697 13.3359 12.3333V6.66667Z" />
</svg>
