<svg width="21" height="21" viewBox="0 0 21 21" xmlns="http://www.w3.org/2000/svg">
<path d="M10.5003 7.38957C10.5003 6.92933 10.1272 6.55623 9.66699 6.55623C9.20675 6.55623 8.83366 6.92933 8.83366 7.38957V11.5562C8.83366 12.0165 9.20675 12.3896 9.66699 12.3896H12.167C12.6272 12.3896 13.0003 12.0165 13.0003 11.5562C13.0003 11.096 12.6272 10.7229 12.167 10.7229H10.5003V7.38957Z" />
<path fill-rule="evenodd" clip-rule="evenodd" d="M10.5003 1.9729C5.89795 1.9729 2.16699 5.70386 2.16699 10.3062C2.16699 14.9086 5.89795 18.6396 10.5003 18.6396C15.1027 18.6396 18.8337 14.9086 18.8337 10.3062C18.8337 5.70386 15.1027 1.9729 10.5003 1.9729ZM3.83366 10.3062C3.83366 6.62434 6.81843 3.63957 10.5003 3.63957C14.1822 3.63957 17.167 6.62434 17.167 10.3062C17.167 13.9881 14.1822 16.9729 10.5003 16.9729C6.81843 16.9729 3.83366 13.9881 3.83366 10.3062Z"/>
</svg>
