<svg width="25" height="25" viewBox="0 0 25 25" xmlns="http://www.w3.org/2000/svg">
<path fill-rule="evenodd" clip-rule="evenodd" d="M12.7734 2.77539C12.297 2.77539 11.8264 2.88059 11.3952 3.08347L5.07025 6.05993C3.66828 6.71968 2.77344 8.12976 2.77344 9.67921V16.7754C2.77344 17.7732 3.34967 18.6812 4.25246 19.106L11.3952 22.4673C11.8264 22.6702 12.297 22.7754 12.7734 22.7754C13.2499 22.7754 13.7205 22.6702 14.1516 22.4673L21.2944 19.106C22.1972 18.6812 22.7734 17.7732 22.7734 16.7754V9.67921C22.7734 8.12976 21.8786 6.71968 20.4766 6.05993L14.1516 3.08347C13.7205 2.88059 13.2499 2.77539 12.7734 2.77539ZM20.7734 15.1574L13.7734 11.6574V5.11588L19.625 7.86957C20.326 8.19944 20.7734 8.90448 20.7734 9.67921V15.1574ZM12.7734 13.3934L20.5077 17.2606C20.4871 17.2738 20.4654 17.2857 20.4428 17.2964L13.3 20.6577C13.1353 20.7352 12.9555 20.7754 12.7734 20.7754C12.5914 20.7754 12.4116 20.7352 12.2468 20.6577L5.10405 17.2964C5.08148 17.2857 5.05982 17.2738 5.03915 17.2606L12.7734 13.3934ZM11.7734 11.6574L4.77344 15.1574V9.67921C4.77344 8.90448 5.22086 8.19944 5.92184 7.86957L11.7734 5.11588V11.6574Z"/>
</svg>
