<svg width="100" height="100" viewBox="0 0 100 100" fill="none" xmlns="http://www.w3.org/2000/svg">
<rect width="100" height="100" rx="50" fill="#FBEAE9"/>
<rect x="7" y="7" width="86" height="86" rx="43" fill="#EB9B98"/>
<g opacity="0.7">
<rect x="15" y="17" width="70" height="70" rx="35" fill="#D42620"/>
<path d="M45.4162 35.0415C44.6542 35.0415 43.9716 35.5129 43.7017 36.2256L43.2808 37.3371C42.3784 37.2469 41.5471 37.1569 40.8741 37.0814C40.371 37.0249 39.9574 36.9766 39.6702 36.9424L39.3388 36.9027L39.2263 36.8889C38.2214 36.7645 37.3045 37.478 37.1801 38.4829C37.0557 39.4877 37.7694 40.4032 38.7742 40.5276L38.8967 40.5426L39.2376 40.5835C39.5316 40.6184 39.953 40.6677 40.4649 40.7251C41.4879 40.84 42.8763 40.9883 44.3329 41.1212C46.2978 41.3005 48.4517 41.4582 49.9995 41.4582C51.5474 41.4582 53.7012 41.3005 55.6662 41.1212C57.1228 40.9883 58.5112 40.84 59.5341 40.7251C60.046 40.6677 60.4675 40.6184 60.7614 40.5835L61.1024 40.5426L61.2246 40.5276C62.2294 40.4032 62.9434 39.4877 62.819 38.4829C62.6945 37.478 61.7791 36.7643 60.7743 36.8887L60.6603 36.9027L60.3289 36.9424C60.0416 36.9766 59.6281 37.0249 59.125 37.0814C58.452 37.1569 57.6206 37.2469 56.7183 37.3371L56.2974 36.2256C56.0275 35.5129 55.3449 35.0415 54.5829 35.0415H45.4162Z" fill="white"/>
<path fill-rule="evenodd" clip-rule="evenodd" d="M60.8386 44.6285L59.2683 66.613C59.2083 67.4524 58.5863 68.1419 57.7539 68.2654C55.9314 68.5358 52.6769 68.955 49.9996 68.9581C47.2903 68.9612 44.0517 68.5406 42.2397 68.2682C41.4098 68.1434 40.791 67.4551 40.7312 66.618L39.1605 44.6285C39.0776 43.467 40.0829 42.5192 41.2397 42.6529C43.5738 42.9226 47.2652 43.2914 49.9996 43.2914C52.7339 43.2914 56.4253 42.9226 58.7594 42.6529C59.9162 42.5192 60.9215 43.467 60.8386 44.6285ZM48.1662 51.5414C48.1662 50.5289 47.3454 49.7081 46.3329 49.7081C45.3204 49.7081 44.4996 50.5289 44.4996 51.5414V60.7081C44.4996 61.7206 45.3204 62.5414 46.3329 62.5414C47.3454 62.5414 48.1662 61.7206 48.1662 60.7081V51.5414ZM53.6662 49.7081C54.6788 49.7081 55.4996 50.5289 55.4996 51.5414V60.7081C55.4996 61.7206 54.6788 62.5414 53.6662 62.5414C52.6537 62.5414 51.8329 61.7206 51.8329 60.7081V51.5414C51.8329 50.5289 52.6537 49.7081 53.6662 49.7081Z" fill="white"/>
</g>
</svg>
