<svg width="21" height="21" viewBox="0 0 21 21" xmlns="http://www.w3.org/2000/svg">
<path fill-rule="evenodd" clip-rule="evenodd" d="M1.33301 5.22274C1.33301 3.38179 2.82539 1.8894 4.66634 1.8894H12.9997C14.8406 1.8894 16.333 3.38179 16.333 5.22274V6.13943C16.333 6.18655 16.3291 6.23275 16.3216 6.27774C17.2985 6.61769 17.9997 7.54671 17.9997 8.63949V15.3062C17.9997 16.6869 16.8804 17.8062 15.4997 17.8062H12.1663C11.1029 17.8062 10.1945 17.1421 9.8332 16.206C9.77929 16.217 9.72348 16.2227 9.66634 16.2227H6.16635C5.70612 16.2227 5.33302 15.8497 5.33302 15.3894C5.33302 14.9292 5.70612 14.5561 6.16635 14.5561H7.99969V14.2227H4.66634C2.82539 14.2227 1.33301 12.7304 1.33301 10.8894V5.22274ZM9.66634 12.5561V8.63949C9.66634 7.25877 10.7856 6.13949 12.1663 6.13949H14.6663C14.6663 6.13947 14.6663 6.1395 14.6663 6.13949V5.22274C14.6663 4.30226 13.9201 3.55607 12.9997 3.55607H4.66634C3.74587 3.55607 2.99967 4.30226 2.99967 5.22274V10.8894C2.99967 11.8099 3.74587 12.5561 4.66634 12.5561H9.66634ZM11.333 8.63949C11.333 8.17925 11.7061 7.80615 12.1663 7.80615H12.3919C12.544 7.96813 12.76 8.06931 12.9997 8.06931H14.6663C14.906 8.06931 15.1221 7.96813 15.2741 7.80615H15.4997C15.9599 7.80615 16.333 8.17925 16.333 8.63949V15.3062C16.333 15.7664 15.9599 16.1395 15.4997 16.1395H12.1663C11.7061 16.1395 11.333 15.7664 11.333 15.3062V8.63949Z" />
</svg>
