<svg width="17" height="16" viewBox="0 0 17 16" fill="none" xmlns="http://www.w3.org/2000/svg">
<path d="M5.16667 8.00002C5.16667 7.63183 5.46514 7.33335 5.83333 7.33335H11.1667C11.5349 7.33335 11.8333 7.63183 11.8333 8.00002C11.8333 8.36821 11.5349 8.66669 11.1667 8.66669H5.83333C5.46514 8.66669 5.16667 8.36821 5.16667 8.00002Z" fill="black"/>
<path d="M5.83333 10.6667C5.46514 10.6667 5.16667 10.9652 5.16667 11.3334C5.16667 11.7015 5.46514 12 5.83333 12H11.1667C11.5349 12 11.8333 11.7015 11.8333 11.3334C11.8333 10.9652 11.5349 10.6667 11.1667 10.6667H5.83333Z" fill="black"/>
<path fillRule="evenodd" clipRule="evenodd" d="M5.16667 0.666687C3.69391 0.666687 2.5 1.86059 2.5 3.33335V12.6667C2.5 14.1394 3.69391 15.3334 5.16667 15.3334H11.8333C13.3061 15.3334 14.5 14.1394 14.5 12.6667V6.05745C14.5 5.43362 14.2813 4.82954 13.8819 4.3503L11.6118 1.6262C11.1052 1.01822 10.3547 0.666687 9.56325 0.666687H5.16667ZM3.83333 3.33335C3.83333 2.59697 4.43029 2.00002 5.16667 2.00002H9.16667V4.00002C9.16667 5.47278 10.3606 6.66669 11.8333 6.66669H13.1667V12.6667C13.1667 13.4031 12.5697 14 11.8333 14H5.16667C4.43029 14 3.83333 13.4031 3.83333 12.6667V3.33335ZM12.9529 5.33335C12.9239 5.28851 12.8921 5.24526 12.8576 5.20387L10.5875 2.47977C10.5598 2.44646 10.5306 2.41469 10.5 2.38451V4.00002C10.5 4.7364 11.097 5.33335 11.8333 5.33335H12.9529Z" fill="black"/>
</svg>
