<svg width="15" height="15" viewBox="0 0 15 15" xmlns="http://www.w3.org/2000/svg">
<path d="M9.71795 1.98245H5.19921C3.22226 1.98245 2.375 3.11214 2.375 4.80666V10.4551C2.375 12.1496 3.22226 13.2793 5.19921 13.2793H9.71795C11.6949 13.2793 12.5422 12.1496 12.5422 10.4551V4.80666C12.5422 3.11214 11.6949 1.98245 9.71795 1.98245ZM6.62826 10.1557C6.79207 10.3195 6.79207 10.5907 6.62826 10.7545C6.54354 10.8392 6.43622 10.8787 6.3289 10.8787C6.22158 10.8787 6.11426 10.8392 6.02953 10.7545L4.89985 9.62477C4.73604 9.46096 4.73604 9.18984 4.89985 9.02604L6.02953 7.89635C6.19333 7.73255 6.46446 7.73255 6.62826 7.89635C6.79207 8.06016 6.79207 8.33128 6.62826 8.49508L5.79794 9.3254L6.62826 10.1557ZM10.0173 9.62477L8.88763 10.7545C8.80291 10.8392 8.69559 10.8787 8.58827 10.8787C8.48095 10.8787 8.37363 10.8392 8.2889 10.7545C8.1251 10.5907 8.1251 10.3195 8.2889 10.1557L9.11922 9.3254L8.2889 8.49508C8.1251 8.33128 8.1251 8.06016 8.2889 7.89635C8.4527 7.73255 8.72383 7.73255 8.88763 7.89635L10.0173 9.02604C10.1811 9.18984 10.1811 9.46096 10.0173 9.62477ZM11.1301 6.07756H10.0004C9.14181 6.07756 8.44706 5.3828 8.44706 4.52424V3.39456C8.44706 3.16297 8.6391 2.97093 8.87069 2.97093C9.10227 2.97093 9.29432 3.16297 9.29432 3.39456V4.52424C9.29432 4.91398 9.61063 5.2303 10.0004 5.2303H11.1301C11.3616 5.2303 11.5537 5.42234 11.5537 5.65393C11.5537 5.88551 11.3616 6.07756 11.1301 6.07756Z" />
</svg>
