<svg width="15" height="15" viewBox="0 0 15 15" fill="none" xmlns="http://www.w3.org/2000/svg">
<path d="M9.99656 2.02441H5.26318C3.20715 2.02441 1.98145 3.25012 1.98145 5.30615V10.0395C1.98145 12.0956 3.20715 13.3213 5.26318 13.3213H9.99656C12.0526 13.3213 13.2783 12.0956 13.2783 10.0395V5.30615C13.2783 3.25012 12.0526 2.02441 9.99656 2.02441ZM6.48324 9.31088L5.21234 10.5818C5.12762 10.6665 5.0203 10.706 4.91298 10.706C4.80566 10.706 4.69269 10.6665 4.61361 10.5818L4.18998 10.1581C4.02053 9.99434 4.02053 9.72322 4.18998 9.55941C4.35378 9.39561 4.61926 9.39561 4.78871 9.55941L4.91298 9.68368L5.88451 8.71215C6.04831 8.54834 6.31379 8.54834 6.48324 8.71215C6.64704 8.87595 6.64704 9.14708 6.48324 9.31088ZM6.48324 5.35698L5.21234 6.62788C5.12762 6.71261 5.0203 6.75214 4.91298 6.75214C4.80566 6.75214 4.69269 6.71261 4.61361 6.62788L4.18998 6.20425C4.02053 6.04044 4.02053 5.76932 4.18998 5.60551C4.35378 5.44171 4.61926 5.44171 4.78871 5.60551L4.91298 5.72978L5.88451 4.75825C6.04831 4.59445 6.31379 4.59445 6.48324 4.75825C6.64704 4.92206 6.64704 5.19318 6.48324 5.35698ZM10.7704 10.2824H7.80497C7.57338 10.2824 7.38134 10.0904 7.38134 9.85878C7.38134 9.62719 7.57338 9.43515 7.80497 9.43515H10.7704C11.0076 9.43515 11.194 9.62719 11.194 9.85878C11.194 10.0904 11.0076 10.2824 10.7704 10.2824ZM10.7704 6.32851H7.80497C7.57338 6.32851 7.38134 6.13647 7.38134 5.90488C7.38134 5.6733 7.57338 5.48125 7.80497 5.48125H10.7704C11.0076 5.48125 11.194 5.6733 11.194 5.90488C11.194 6.13647 11.0076 6.32851 10.7704 6.32851Z" fill="#1B1B1B"/>
</svg>
