<svg width="21" height="20" viewBox="0 0 21 20" xmlns="http://www.w3.org/2000/svg">
<path d="M14.42 11.4226L11.0867 14.7559C10.7612 15.0814 10.2336 15.0814 9.90814 14.7559L6.57481 11.4226C6.24937 11.0972 6.24937 10.5695 6.57481 10.2441C6.90024 9.91866 7.42788 9.91866 7.75332 10.2441L9.66406 12.1548V2.50002C9.66406 2.03978 10.0372 1.66669 10.4974 1.66669C10.9576 1.66669 11.3307 2.03978 11.3307 2.50002V12.1548L13.2415 10.2441C13.5669 9.91866 14.0945 9.91866 14.42 10.2441C14.7454 10.5695 14.7454 11.0972 14.42 11.4226Z" />
<path d="M3.83073 14.5834C3.83073 14.1231 3.45763 13.75 2.9974 13.75C2.53716 13.75 2.16406 14.1231 2.16406 14.5834V15.8334C2.16406 17.6743 3.65645 19.1667 5.4974 19.1667H15.4974C17.3383 19.1667 18.8307 17.6743 18.8307 15.8334V14.5834C18.8307 14.1231 18.4576 13.75 17.9974 13.75C17.5372 13.75 17.1641 14.1231 17.1641 14.5834V15.8334C17.1641 16.7538 16.4179 17.5 15.4974 17.5H5.4974C4.57692 17.5 3.83073 16.7538 3.83073 15.8334V14.5834Z" />
</svg>
