<svg width="20" height="20" viewBox="0 0 20 20" fill="none" xmlns="http://www.w3.org/2000/svg">
<g clip-path="url(#clip0_10132_211430)">
<path fill-rule="evenodd" clip-rule="evenodd" d="M2.67188 0C2.11959 0 1.67188 0.447715 1.67188 1V19C1.67188 19.5523 2.11959 20 2.67188 20H17.3385C17.8908 20 18.3385 19.5523 18.3385 19V3.33333L15.0052 0H2.67188Z" fill="#E4E7EC"/>
<path fill-rule="evenodd" clip-rule="evenodd" d="M15.0078 0V3.33333H18.3411L15.0078 0Z" fill="#98A2B3"/>
<rect x="0.835938" y="8" width="18.3333" height="10" rx="1" fill="#0F973D"/>
<path d="M3.82955 10.1818L5.1108 12.3125H5.15625L6.44318 10.1818H7.64489L5.85227 13.0909L7.6733 16H6.4517L5.15625 13.8835H5.1108L3.81534 16H2.59943L4.4375 13.0909L2.62216 10.1818H3.82955ZM8.4723 16V10.1818H9.52628V15.1165H12.0888V16H8.4723ZM16.1655 11.7812C16.139 11.5331 16.0272 11.34 15.8303 11.2017C15.6352 11.0634 15.3814 10.9943 15.0689 10.9943C14.8492 10.9943 14.6607 11.0275 14.5036 11.0938C14.3464 11.16 14.2261 11.25 14.1428 11.3636C14.0594 11.4773 14.0168 11.607 14.0149 11.7528C14.0149 11.8741 14.0424 11.9792 14.0973 12.0682C14.1541 12.1572 14.2308 12.233 14.3274 12.2955C14.424 12.3561 14.531 12.4072 14.6484 12.4489C14.7659 12.4905 14.8842 12.5256 15.0036 12.554L15.549 12.6903C15.7687 12.7415 15.9799 12.8106 16.1825 12.8977C16.3871 12.9848 16.5698 13.0947 16.7308 13.2273C16.8937 13.3598 17.0225 13.5199 17.1172 13.7074C17.2119 13.8949 17.2592 14.1146 17.2592 14.3665C17.2592 14.7074 17.1721 15.0076 16.9979 15.267C16.8236 15.5246 16.5717 15.7263 16.2422 15.8722C15.9145 16.0161 15.5178 16.0881 15.0518 16.0881C14.5992 16.0881 14.2062 16.018 13.8729 15.8778C13.5414 15.7377 13.282 15.5331 13.0945 15.2642C12.9089 14.9953 12.8085 14.6676 12.7933 14.2812H13.8303C13.8454 14.4839 13.9079 14.6525 14.0178 14.7869C14.1276 14.9214 14.2706 15.0218 14.4467 15.0881C14.6248 15.1544 14.8236 15.1875 15.0433 15.1875C15.2725 15.1875 15.4732 15.1534 15.6456 15.0852C15.8198 15.0152 15.9562 14.9186 16.0547 14.7955C16.1532 14.6705 16.2034 14.5246 16.2053 14.358C16.2034 14.2064 16.1589 14.0814 16.0717 13.983C15.9846 13.8826 15.8625 13.7992 15.7053 13.733C15.55 13.6648 15.3681 13.6042 15.1598 13.5511L14.4979 13.3807C14.0187 13.2576 13.6399 13.071 13.3615 12.821C13.085 12.5691 12.9467 12.2348 12.9467 11.8182C12.9467 11.4754 13.0395 11.1752 13.2251 10.9176C13.4126 10.66 13.6674 10.4602 13.9893 10.3182C14.3113 10.1742 14.6759 10.1023 15.0831 10.1023C15.496 10.1023 15.8577 10.1742 16.1683 10.3182C16.4808 10.4602 16.7261 10.6581 16.9041 10.9119C17.0821 11.1638 17.174 11.4536 17.1797 11.7812H16.1655Z" fill="white"/>
</g>
<defs>
<clipPath id="clip0_10132_211430">
<rect width="20" height="20" fill="white"/>
</clipPath>
</defs>
</svg>
