<svg width="15" height="15" viewBox="0 0 15 15" xmlns="http://www.w3.org/2000/svg">
<path d="M4.2375 2.54712H5.08476L5.08476 6.53661C4.59752 6.66201 4.2375 7.10431 4.2375 7.6307C4.2375 8.15709 4.59752 8.59939 5.08476 8.72479L5.08476 12.7143H4.2375C3.30163 12.7143 2.54297 11.9556 2.54297 11.0198V4.24165C2.54297 3.30578 3.30163 2.54712 4.2375 2.54712Z" />
<path d="M13.6744 8.0301C13.895 7.80952 13.895 7.45188 13.6744 7.2313L11.415 4.97193C11.1944 4.75134 10.8368 4.75134 10.6162 4.97193C10.3956 5.19251 10.3956 5.55015 10.6162 5.77073L11.9113 7.06586L5.36718 7.06586C5.05523 7.06586 4.80234 7.31875 4.80234 7.6307C4.80234 7.94265 5.05523 8.19554 5.36718 8.19554L11.9113 8.19554L10.6162 9.49067C10.3956 9.71125 10.3956 10.0689 10.6162 10.2895C10.8368 10.5101 11.1944 10.5101 11.415 10.2895L13.6744 8.0301Z" />
</svg>
