<svg width="17" height="26" viewBox="0 0 17 26" fill="none" xmlns="http://www.w3.org/2000/svg">
<path d="M4.25 25.471C6.596 25.471 8.5 23.6043 8.5 21.3043V17.1376H4.25C1.904 17.1376 0 19.0043 0 21.3043C0 23.6043 1.904 25.471 4.25 25.471Z" fill="#0ACF83"/>
<path d="M0 12.971C0 10.671 1.904 8.80428 4.25 8.80428H8.5V17.1376H4.25C1.904 17.1376 0 15.271 0 12.971Z" fill="#A259FF"/>
<path d="M0 4.63761C0 2.33761 1.904 0.470947 4.25 0.470947H8.5V8.80428H4.25C1.904 8.80428 0 6.93761 0 4.63761Z" fill="#F24E1E"/>
<path d="M8.5 0.470947H12.75C15.096 0.470947 17 2.33761 17 4.63761C17 6.93761 15.096 8.80428 12.75 8.80428H8.5V0.470947Z" fill="#FF7262"/>
<path d="M17 12.971C17 15.271 15.096 17.1376 12.75 17.1376C10.404 17.1376 8.5 15.271 8.5 12.971C8.5 10.671 10.404 8.80428 12.75 8.80428C15.096 8.80428 17 10.671 17 12.971Z" fill="#1ABCFE"/>
</svg>
