<svg width="21" height="21" viewBox="0 0 21 21" xmlns="http://www.w3.org/2000/svg">
<path fill-rule="evenodd" clip-rule="evenodd" d="M3.83333 9.88949C2.68274 9.88949 1.75 8.95675 1.75 7.80615V3.63949C1.75 2.48889 2.68274 1.55615 3.83333 1.55615H8C9.15059 1.55615 10.0833 2.48889 10.0833 3.63949V7.80615C10.0833 8.95675 9.15059 9.88949 8 9.88949H3.83333ZM3.41667 7.80615C3.41667 8.03627 3.60321 8.22282 3.83333 8.22282L8 8.22282C8.23012 8.22282 8.41667 8.03627 8.41667 7.80615V3.63949C8.41667 3.40937 8.23012 3.22282 8 3.22282L3.83333 3.22282C3.60321 3.22282 3.41667 3.40937 3.41667 3.63949L3.41667 7.80615Z" />
<path fill-rule="evenodd" clip-rule="evenodd" d="M1.75 16.9728C1.75 18.1234 2.68274 19.0562 3.83333 19.0562H8C9.15059 19.0562 10.0833 18.1234 10.0833 16.9728V12.8062C10.0833 11.6556 9.15059 10.7228 8 10.7228H3.83333C2.68274 10.7228 1.75 11.6556 1.75 12.8062V16.9728ZM3.83333 17.3895C3.60321 17.3895 3.41667 17.2029 3.41667 16.9728L3.41667 12.8062C3.41667 12.576 3.60321 12.3895 3.83333 12.3895H8C8.23012 12.3895 8.41667 12.576 8.41667 12.8062V16.9728C8.41667 17.2029 8.23012 17.3895 8 17.3895H3.83333Z" />
<path fill-rule="evenodd" clip-rule="evenodd" d="M10.9167 16.9728C10.9167 18.1234 11.8494 19.0562 13 19.0562H17.1667C18.3173 19.0562 19.25 18.1234 19.25 16.9728V12.8062C19.25 11.6556 18.3173 10.7228 17.1667 10.7228H13C11.8494 10.7228 10.9167 11.6556 10.9167 12.8062V16.9728ZM13 17.3895C12.7699 17.3895 12.5833 17.2029 12.5833 16.9728V12.8062C12.5833 12.576 12.7699 12.3895 13 12.3895H17.1667C17.3968 12.3895 17.5833 12.576 17.5833 12.8062V16.9728C17.5833 17.2029 17.3968 17.3895 17.1667 17.3895H13Z" />
<path fill-rule="evenodd" clip-rule="evenodd" d="M10.9167 7.80615C10.9167 8.95675 11.8494 9.88949 13 9.88949H17.1667C18.3173 9.88949 19.25 8.95675 19.25 7.80615V3.63949C19.25 2.48889 18.3173 1.55615 17.1667 1.55615H13C11.8494 1.55615 10.9167 2.48889 10.9167 3.63949V7.80615ZM13 8.22282C12.7699 8.22282 12.5833 8.03627 12.5833 7.80615V3.63949C12.5833 3.40937 12.7699 3.22282 13 3.22282L17.1667 3.22282C17.3968 3.22282 17.5833 3.40937 17.5833 3.63949V7.80615C17.5833 8.03627 17.3968 8.22282 17.1667 8.22282L13 8.22282Z" />
</svg>
