<svg width="14" height="14" viewBox="0 0 14 14" xmlns="http://www.w3.org/2000/svg">
<path fill-rule="evenodd" clip-rule="evenodd" d="M2.91634 2.77051C2.8358 2.77051 2.77051 2.8358 2.77051 2.91634V5.24967C2.77051 5.33022 2.8358 5.39551 2.91634 5.39551H5.24967C5.33022 5.39551 5.39551 5.33022 5.39551 5.24967V2.91634C5.39551 2.8358 5.33022 2.77051 5.24967 2.77051H2.91634ZM1.89551 2.91634C1.89551 2.35255 2.35255 1.89551 2.91634 1.89551H5.24967C5.81347 1.89551 6.27051 2.35255 6.27051 2.91634V5.24967C6.27051 5.81347 5.81347 6.27051 5.24967 6.27051H2.91634C2.35255 6.27051 1.89551 5.81347 1.89551 5.24967V2.91634Z" />
<path fill-rule="evenodd" clip-rule="evenodd" d="M8.74967 2.77051C8.66913 2.77051 8.60384 2.8358 8.60384 2.91634V5.24967C8.60384 5.33022 8.66913 5.39551 8.74967 5.39551H11.083C11.1635 5.39551 11.2288 5.33022 11.2288 5.24967V2.91634C11.2288 2.8358 11.1635 2.77051 11.083 2.77051H8.74967ZM7.72884 2.91634C7.72884 2.35255 8.18588 1.89551 8.74967 1.89551H11.083C11.6468 1.89551 12.1038 2.35255 12.1038 2.91634V5.24967C12.1038 5.81347 11.6468 6.27051 11.083 6.27051H8.74967C8.18588 6.27051 7.72884 5.81347 7.72884 5.24967V2.91634Z" />
<path fill-rule="evenodd" clip-rule="evenodd" d="M2.91634 8.60384C2.8358 8.60384 2.77051 8.66913 2.77051 8.74967V11.083C2.77051 11.1635 2.8358 11.2288 2.91634 11.2288H5.24967C5.33022 11.2288 5.39551 11.1635 5.39551 11.083V8.74967C5.39551 8.66913 5.33022 8.60384 5.24967 8.60384H2.91634ZM1.89551 8.74967C1.89551 8.18588 2.35255 7.72884 2.91634 7.72884H5.24967C5.81347 7.72884 6.27051 8.18588 6.27051 8.74967V11.083C6.27051 11.6468 5.81347 12.1038 5.24967 12.1038H2.91634C2.35255 12.1038 1.89551 11.6468 1.89551 11.083V8.74967Z" />
<path fill-rule="evenodd" clip-rule="evenodd" d="M8.74967 8.60384C8.66913 8.60384 8.60384 8.66913 8.60384 8.74967V11.083C8.60384 11.1635 8.66913 11.2288 8.74967 11.2288H11.083C11.1635 11.2288 11.2288 11.1635 11.2288 11.083V8.74967C11.2288 8.66913 11.1635 8.60384 11.083 8.60384H8.74967ZM7.72884 8.74967C7.72884 8.18588 8.18588 7.72884 8.74967 7.72884H11.083C11.6468 7.72884 12.1038 8.18588 12.1038 8.74967V11.083C12.1038 11.6468 11.6468 12.1038 11.083 12.1038H8.74967C8.18588 12.1038 7.72884 11.6468 7.72884 11.083V8.74967Z" />
</svg>
