<svg width="16" height="16" viewBox="0 0 16 16" fill="none" xmlns="http://www.w3.org/2000/svg">
<path fillRule="evenodd" clipRule="evenodd" d="M7.99754 3.33325C6.52478 3.33325 5.33088 4.52716 5.33088 5.99992C5.33088 7.47268 6.52478 8.66659 7.99754 8.66659C9.4703 8.66659 10.6642 7.47268 10.6642 5.99992C10.6642 4.52716 9.4703 3.33325 7.99754 3.33325ZM6.66421 5.99992C6.66421 5.26354 7.26116 4.66659 7.99754 4.66659C8.73392 4.66659 9.33088 5.26354 9.33088 5.99992C9.33088 6.7363 8.73392 7.33325 7.99754 7.33325C7.26116 7.33325 6.66421 6.7363 6.66421 5.99992Z" fill="black"/>
<path fillRule="evenodd" clipRule="evenodd" d="M7.99754 14.6666C7.23962 14.6666 6.14679 14.4875 5.31744 14.1063C4.91061 13.9194 4.47409 13.6421 4.21661 13.2272C4.08068 13.0082 3.9948 12.75 3.99761 12.4626C4.00039 12.178 4.08965 11.9081 4.2358 11.6608C4.90412 10.5297 6.29057 9.33325 7.99754 9.33325C9.70451 9.33325 11.091 10.5297 11.7593 11.6608C11.9054 11.9081 11.9947 12.178 11.9975 12.4626C12.0003 12.75 11.9144 13.0082 11.7785 13.2272C11.521 13.6421 11.0845 13.9194 10.6776 14.1063C9.84829 14.4875 8.75546 14.6666 7.99754 14.6666ZM5.38372 12.3391C5.33266 12.4255 5.33095 12.4684 5.33088 12.4757C5.33082 12.4805 5.33066 12.4937 5.34949 12.5241C5.40242 12.6094 5.55614 12.7486 5.8742 12.8948C6.49461 13.1799 7.3901 13.3333 7.99754 13.3333C8.60498 13.3333 9.50047 13.1799 10.1209 12.8948C10.4389 12.7486 10.5927 12.6094 10.6456 12.5241C10.6644 12.4937 10.6643 12.4808 10.6642 12.476C10.6641 12.4687 10.6624 12.4255 10.6114 12.3391C10.0932 11.4622 9.07988 10.6666 7.99754 10.6666C6.9152 10.6666 5.90185 11.4622 5.38372 12.3391Z" fill="black"/>
<path fillRule="evenodd" clipRule="evenodd" d="M1.66421 7.99992C1.66421 6.89535 2.55964 5.99992 3.66421 5.99992C4.76878 5.99992 5.66421 6.89535 5.66421 7.99992C5.66421 9.10449 4.76878 9.99992 3.66421 9.99992C2.55964 9.99992 1.66421 9.10449 1.66421 7.99992ZM3.66421 7.33325C3.29602 7.33325 2.99754 7.63173 2.99754 7.99992C2.99754 8.36811 3.29602 8.66659 3.66421 8.66659C4.0324 8.66659 4.33088 8.36811 4.33088 7.99992C4.33088 7.63173 4.0324 7.33325 3.66421 7.33325Z" fill="black"/>
<path d="M1.92803 12.963C1.76434 13.2928 1.36428 13.4274 1.03448 13.2637C0.704682 13.1 0.570027 12.7 0.733721 12.3702C0.978644 11.8767 1.34936 11.3813 1.81571 11.0022C2.28224 10.623 2.88006 10.3333 3.56232 10.3333C3.93051 10.3333 4.22899 10.6317 4.22899 10.9999C4.22899 11.3681 3.93051 11.6666 3.56232 11.6666C3.26834 11.6666 2.95806 11.7919 2.65674 12.0368C2.35525 12.2819 2.09837 12.6198 1.92803 12.963Z" fill="black"/>
<path fillRule="evenodd" clipRule="evenodd" d="M10.5376 7.99992C10.5376 6.89535 11.433 5.99992 12.5376 5.99992C13.6422 5.99992 14.5376 6.89535 14.5376 7.99992C14.5376 9.10449 13.6422 9.99992 12.5376 9.99992C11.433 9.99992 10.5376 9.10449 10.5376 7.99992ZM12.5376 7.33325C12.1694 7.33325 11.8709 7.63173 11.8709 7.99992C11.8709 8.36811 12.1694 8.66659 12.5376 8.66659C12.9058 8.66659 13.2042 8.36811 13.2042 7.99992C13.2042 7.63173 12.9058 7.33325 12.5376 7.33325Z" fill="black"/>
<path d="M15.2643 12.3702C15.428 12.7 15.2933 13.1 14.9635 13.2637C14.6337 13.4274 14.2337 13.2928 14.07 12.963C13.8997 12.6198 13.6428 12.2819 13.3413 12.0368C13.04 11.7919 12.7297 11.6666 12.4357 11.6666C12.0675 11.6666 11.769 11.3681 11.769 10.9999C11.769 10.6317 12.0675 10.3333 12.4357 10.3333C13.118 10.3333 13.7158 10.623 14.1823 11.0022C14.6487 11.3813 15.0194 11.8767 15.2643 12.3702Z" fill="black"/>
</svg>
