<svg width="17" height="16" viewBox="0 0 17 16" fill="none" xmlns="http://www.w3.org/2000/svg">
<path fill-rule="evenodd" clip-rule="evenodd" d="M9.58538 2C7.37624 2 5.58538 3.79086 5.58538 6C5.58538 8.20914 7.37624 10 9.58538 10C11.7945 10 13.5854 8.20914 13.5854 6C13.5854 3.79086 11.7945 2 9.58538 2ZM6.91871 6C6.91871 4.52724 8.11262 3.33333 9.58538 3.33333C11.0581 3.33333 12.252 4.52724 12.252 6C12.252 7.47276 11.0581 8.66667 9.58538 8.66667C8.11262 8.66667 6.91871 7.47276 6.91871 6Z" fill="black"/>
<path d="M5.68898 13.6848C5.49487 13.9977 5.08388 14.0939 4.77102 13.8998C4.45815 13.7057 4.36188 13.2947 4.55599 12.9819C5.46893 11.5104 7.33657 10 9.58538 10C11.8342 10 13.7018 11.5104 14.6148 12.9819C14.8089 13.2947 14.7126 13.7057 14.3998 13.8998C14.0869 14.0939 13.6759 13.9977 13.4818 13.6848C12.7337 12.479 11.2416 11.3333 9.58538 11.3333C7.92916 11.3333 6.43708 12.479 5.68898 13.6848Z" fill="black"/>
<path d="M5.51728 4.37314C5.67939 4.70373 5.54282 5.10313 5.21223 5.26524C4.60646 5.5623 4.25204 6.1012 4.25204 6.66667C4.25204 7.23214 4.60646 7.77104 5.21223 8.06809C5.54282 8.2302 5.67939 8.62961 5.51728 8.96019C5.35518 9.29077 4.95577 9.42735 4.62519 9.26524C3.64065 8.78245 2.91871 7.82235 2.91871 6.66667C2.91871 5.51098 3.64065 4.55088 4.62519 4.06809C4.95577 3.90599 5.35518 4.04256 5.51728 4.37314Z" fill="black"/>
<path d="M3.02231 13.6848C2.8282 13.9977 2.41722 14.0939 2.10435 13.8998C1.79149 13.7057 1.69522 13.2947 1.88933 12.9819C2.27539 12.3596 2.89308 11.8402 3.5822 11.4373C3.90004 11.2514 4.30837 11.3584 4.49422 11.6763C4.68007 11.9941 4.57308 12.4024 4.25524 12.5883C3.67943 12.925 3.25579 13.3085 3.02231 13.6848Z" fill="black"/>
</svg>
