<svg width="21" height="21" viewBox="0 0 21 21" xmlns="http://www.w3.org/2000/svg">
<path d="M4.21804 15.4099L4.3822 16.2774C4.42556 16.5064 4.53491 16.7146 4.69712 16.8768C5.16219 17.3419 5.93677 17.3213 6.42719 16.8309L12.6899 10.5682C13.1021 10.1561 13.6763 9.9558 14.2348 10.0295C15.8632 10.2442 17.422 9.06948 17.6926 7.42358L17.7526 7.05872C18.0944 4.97977 16.4306 3.22401 14.3425 3.46015L13.947 3.50488C12.2 3.70244 10.9408 5.37983 11.2627 7.08062C11.3716 7.65614 11.1779 8.26319 10.7481 8.69291L9.62541 9.81563C9.35038 10.0907 9.01697 10.2994 8.65299 10.4243L7.62438 10.7773C7.05449 10.9729 6.59992 11.4275 6.40432 11.9974C6.2394 12.4779 5.88866 12.8805 5.43337 13.1119L5.36304 13.1477C4.52004 13.5762 4.04765 14.5095 4.21804 15.4099Z" stroke-width="2" stroke-linecap="round"/>
<circle cx="0.833333" cy="0.833333" r="0.833333" transform="matrix(0.707107 0.707107 0.707107 -0.707107 13.3633 6.68652)"/>
</svg>
