
<svg width="100" height="100" viewBox="0 0 100 100" fill="none" xmlns="http://www.w3.org/2000/svg">
<rect width="100" height="100" rx="50" fill="#FBEAE9"/>
<rect x="7" y="7" width="86" height="86" rx="43" fill="#EB9B98"/>
<g opacity="0.7">
<rect x="15" y="17" width="70" height="70" rx="35" fill="#D42620"/>
<path d="M45.4162 35.0416C44.6542 35.0416 43.9716 35.513 43.7017 36.2257L43.2808 37.3372C42.3784 37.247 41.5471 37.157 40.8741 37.0815C40.371 37.025 39.9574 36.9767 39.6702 36.9426L39.3388 36.9028L39.2263 36.889C38.2214 36.7646 37.3045 37.4781 37.1801 38.483C37.0557 39.4878 37.7694 40.4033 38.7742 40.5277L38.8967 40.5427L39.2376 40.5836C39.5316 40.6185 39.953 40.6678 40.4649 40.7253C41.4879 40.8401 42.8763 40.9884 44.3329 41.1213C46.2978 41.3006 48.4517 41.4583 49.9995 41.4583C51.5474 41.4583 53.7012 41.3006 55.6662 41.1213C57.1228 40.9884 58.5112 40.8401 59.5341 40.7253C60.046 40.6678 60.4675 40.6185 60.7614 40.5836L61.1024 40.5427L61.2246 40.5278C62.2294 40.4033 62.9434 39.4878 62.819 38.483C62.6945 37.4781 61.7791 36.7644 60.7743 36.8889L60.6603 36.9028L60.3289 36.9426C60.0416 36.9767 59.6281 37.025 59.125 37.0815C58.452 37.157 57.6206 37.247 56.7183 37.3372L56.2974 36.2257C56.0275 35.513 55.3449 35.0416 54.5829 35.0416H45.4162Z" fill="white"/>
<path fill-rule="evenodd" clip-rule="evenodd" d="M60.8386 44.6286L59.2683 66.6131C59.2083 67.4525 58.5863 68.1421 57.7539 68.2656C55.9314 68.5359 52.6769 68.9551 49.9996 68.9582C47.2903 68.9614 44.0517 68.5408 42.2397 68.2683C41.4098 68.1435 40.791 67.4552 40.7312 66.6181L39.1605 44.6286C39.0776 43.4671 40.0829 42.5193 41.2397 42.653C43.5738 42.9227 47.2652 43.2916 49.9996 43.2916C52.7339 43.2916 56.4253 42.9227 58.7594 42.653C59.9162 42.5193 60.9215 43.4671 60.8386 44.6286ZM48.1662 51.5416C48.1662 50.529 47.3454 49.7082 46.3329 49.7082C45.3204 49.7082 44.4996 50.529 44.4996 51.5416V60.7082C44.4996 61.7207 45.3204 62.5416 46.3329 62.5416C47.3454 62.5416 48.1662 61.7207 48.1662 60.7082V51.5416ZM53.6662 49.7082C54.6788 49.7082 55.4996 50.529 55.4996 51.5416V60.7082C55.4996 61.7207 54.6788 62.5416 53.6662 62.5416C52.6537 62.5416 51.8329 61.7207 51.8329 60.7082V51.5416C51.8329 50.529 52.6537 49.7082 53.6662 49.7082Z" fill="white"/>
</g>
</svg>
