<svg width="16" height="14" viewBox="0 0 16 14" fill="none" xmlns="http://www.w3.org/2000/svg">
<path fill-rule="evenodd" clip-rule="evenodd" d="M13.278 1.16659C13.278 0.706348 12.9049 0.333252 12.4446 0.333252C11.9844 0.333252 11.6113 0.706348 11.6113 1.16659V4.73801H7.49379L5.01247 1.01603C4.32643 -0.0130131 2.7224 0.472648 2.7224 1.70941V4.73801H1.33333C0.873096 4.73801 0.5 5.11111 0.5 5.57135C0.5 6.03158 0.873096 6.40468 1.33333 6.40468H2.7224V7.59516H1.33333C0.873096 7.59516 0.5 7.96825 0.5 8.42849C0.5 8.88873 0.873096 9.26182 1.33333 9.26182H2.7224V12.8333C2.7224 13.2935 3.0955 13.6666 3.55574 13.6666C4.01597 13.6666 4.38907 13.2935 4.38907 12.8333V9.26182H8.50658L10.9879 12.9838C11.6739 14.0128 13.278 13.5272 13.278 12.2904V9.26182H14.6667C15.1269 9.26182 15.5 8.88873 15.5 8.42849C15.5 7.96825 15.1269 7.59516 14.6667 7.59516H13.278V6.40468H14.6667C15.1269 6.40468 15.5 6.03158 15.5 5.57135C15.5 5.11111 15.1269 4.73801 14.6667 4.73801H13.278V1.16659ZM9.39855 7.59516L8.6049 6.40468H11.6113V7.59516H9.39855ZM11.6113 10.9143L10.5097 9.26182H11.6113V10.9143ZM6.60181 6.40468L7.39546 7.59516H4.38907V6.40468H6.60181ZM4.38907 3.08556L5.4907 4.73801H4.38907V3.08556Z" fill="#667185"/>
</svg>
