<svg width="16" height="16" viewBox="0 0 16 16" fill="none" xmlns="http://www.w3.org/2000/svg">
<path d="M3.33073 4.33341C2.96254 4.33341 2.66406 4.63189 2.66406 5.00008C2.66406 5.36827 2.96254 5.66675 3.33073 5.66675H4.66406C5.03225 5.66675 5.33073 5.36827 5.33073 5.00008C5.33073 4.63189 5.03225 4.33341 4.66406 4.33341H3.33073Z" fill="black"/>
<path d="M10.6641 5.00008C10.6641 4.63189 10.9625 4.33341 11.3307 4.33341H12.6641C13.0323 4.33341 13.3307 4.63189 13.3307 5.00008C13.3307 5.36827 13.0323 5.66675 12.6641 5.66675H11.3307C10.9625 5.66675 10.6641 5.36827 10.6641 5.00008Z" fill="black"/>
<path d="M3.33073 10.3334C2.96254 10.3334 2.66406 10.6319 2.66406 11.0001C2.66406 11.3683 2.96254 11.6667 3.33073 11.6667H4.66406C5.03225 11.6667 5.33073 11.3683 5.33073 11.0001C5.33073 10.6319 5.03225 10.3334 4.66406 10.3334H3.33073Z" fill="black"/>
<path d="M10.6641 11.0001C10.6641 10.6319 10.9625 10.3334 11.3307 10.3334H12.6641C13.0323 10.3334 13.3307 10.6319 13.3307 11.0001C13.3307 11.3683 13.0323 11.6667 12.6641 11.6667H11.3307C10.9625 11.6667 10.6641 11.3683 10.6641 11.0001Z" fill="black"/>
<path fillRule="evenodd" clipRule="evenodd" d="M7.9974 6.00008C9.10196 6.00008 9.9974 6.89551 9.9974 8.00008C9.9974 9.10465 9.10196 10.0001 7.9974 10.0001C6.89283 10.0001 5.9974 9.10465 5.9974 8.00008C5.9974 6.89551 6.89283 6.00008 7.9974 6.00008ZM8.66406 8.00008C8.66406 7.63189 8.36558 7.33341 7.9974 7.33341C7.62921 7.33341 7.33073 7.63189 7.33073 8.00008C7.33073 8.36827 7.62921 8.66675 7.9974 8.66675C8.36558 8.66675 8.66406 8.36827 8.66406 8.00008Z" fill="black"/>
<path fillRule="evenodd" clipRule="evenodd" d="M3.33073 2.66675C1.85797 2.66675 0.664062 3.86066 0.664062 5.33341V10.6667C0.664062 12.1395 1.85797 13.3334 3.33073 13.3334H12.6641C14.1368 13.3334 15.3307 12.1395 15.3307 10.6667V5.33341C15.3307 3.86066 14.1368 2.66675 12.6641 2.66675H3.33073ZM1.9974 5.33341C1.9974 4.59703 2.59435 4.00008 3.33073 4.00008H12.6641C13.4004 4.00008 13.9974 4.59703 13.9974 5.33341V10.6667C13.9974 11.4031 13.4004 12.0001 12.6641 12.0001H3.33073C2.59435 12.0001 1.9974 11.4031 1.9974 10.6667V5.33341Z" fill="black"/>
</svg>
