<svg width="21" height="21" viewBox="0 0 21 21" xmlns="http://www.w3.org/2000/svg">
<path d="M4.74223 5.65328C4.28374 5.61317 3.87955 5.95233 3.83943 6.41081C3.79932 6.8693 4.13848 7.27349 4.59697 7.31361L6.25729 7.45887C6.71578 7.49898 7.11997 7.15982 7.16008 6.70133C7.20019 6.24285 6.86104 5.83865 6.40255 5.79854L4.74223 5.65328Z" />
<path d="M13.8394 7.24415C13.8795 6.78566 14.2837 6.4465 14.7422 6.48661L16.4025 6.63187C16.861 6.67199 17.2002 7.07618 17.1601 7.53467C17.12 7.99315 16.7158 8.33231 16.2573 8.2922L14.597 8.14694C14.1385 8.10683 13.7993 7.70263 13.8394 7.24415Z" />
<path d="M4.74223 12.8092C4.28374 12.7691 3.87955 13.1083 3.83943 13.5668C3.79932 14.0253 4.13848 14.4295 4.59697 14.4696L6.25729 14.6148C6.71578 14.6549 7.11997 14.3158 7.16008 13.8573C7.20019 13.3988 6.86104 12.9946 6.40255 12.9545L4.74223 12.8092Z" />
<path d="M13.8394 14.7441C13.8795 14.2857 14.2837 13.9465 14.7422 13.9866L16.4025 14.1319C16.861 14.172 17.2002 14.5762 17.1601 15.0347C17.12 15.4932 16.7158 15.8323 16.2573 15.7922L14.597 15.6469C14.1385 15.6068 13.7993 15.2026 13.8394 14.7441Z" />
<path fill-rule="evenodd" clip-rule="evenodd" d="M10.4997 7.80608C11.8804 7.80608 12.9997 8.92536 12.9997 10.3061C12.9997 11.6868 11.8804 12.8061 10.4997 12.8061C9.11896 12.8061 7.99967 11.6868 7.99967 10.3061C7.99967 8.92536 9.11896 7.80608 10.4997 7.80608ZM11.333 10.3061C11.333 9.84584 10.9599 9.47274 10.4997 9.47274C10.0394 9.47274 9.66634 9.84584 9.66634 10.3061C9.66634 10.7663 10.0394 11.1394 10.4997 11.1394C10.9599 11.1394 11.333 10.7663 11.333 10.3061Z" />
<path fill-rule="evenodd" clip-rule="evenodd" d="M4.86995 3.0074C2.94226 2.84194 1.33301 4.36931 1.33301 6.27992V12.9391C1.33301 14.7101 2.71215 16.1648 4.45654 16.3116C5.17156 16.3718 6.04867 16.4505 7.08503 16.5521C7.27081 16.5703 7.68387 16.6546 8.28108 16.7927C8.67372 16.8835 9.11571 16.9902 9.58005 17.1023C9.79894 17.1551 10.0235 17.2093 10.2495 17.2634C10.9489 17.431 11.664 17.5983 12.2794 17.7242C12.8686 17.8448 13.446 17.945 13.8295 17.9466C14.7825 17.9507 15.7146 17.9327 16.5123 17.9083C18.2965 17.8539 19.6663 16.3798 19.6663 14.6237V7.96675C19.6663 6.03973 18.0467 4.53347 16.1527 4.58466C15.4422 4.60387 14.6456 4.61674 13.8365 4.61332C13.6442 4.6125 13.2257 4.54997 12.6135 4.42471C12.0276 4.3048 11.3358 4.14319 10.6378 3.97597C10.4191 3.92359 10.1993 3.87053 9.98238 3.81817L9.98155 3.81797C9.51259 3.70477 9.05713 3.59483 8.65659 3.50221C8.08977 3.37113 7.56292 3.25763 7.24765 3.22672C6.33188 3.13694 5.53867 3.0648 4.86995 3.0074ZM2.99967 6.27992C2.99967 5.32177 3.79686 4.58809 4.72742 4.66796C5.38948 4.72479 6.17599 4.79631 7.08503 4.88543C7.27081 4.90365 7.68387 4.98792 8.28108 5.12602C8.67379 5.21683 9.11586 5.32355 9.58028 5.43565C9.79933 5.48853 10.0234 5.54261 10.2495 5.59678C10.9489 5.76431 11.664 5.93161 12.2794 6.05754C12.8686 6.17812 13.446 6.27835 13.8295 6.27997C14.66 6.28348 15.4744 6.27027 16.1977 6.25072C17.1864 6.224 17.9997 7.00999 17.9997 7.96675V14.6237C17.9997 15.5083 17.3166 16.2164 16.4615 16.2424C15.6773 16.2664 14.7653 16.2839 13.8365 16.28C13.6442 16.2792 13.2257 16.2166 12.6135 16.0914C12.0276 15.9715 11.3358 15.8099 10.6378 15.6426C10.4189 15.5902 10.1988 15.5371 9.98171 15.4847C9.51267 15.3715 9.0572 15.2615 8.65659 15.1689C8.08977 15.0378 7.56292 14.9243 7.24765 14.8934C6.20361 14.791 5.31887 14.7116 4.59628 14.6508C3.69473 14.575 2.99967 13.8234 2.99967 12.9391V6.27992Z" />
</svg>
