<svg width="20" height="20" viewBox="0 0 20 20" fill="none" xmlns="http://www.w3.org/2000/svg">
<g clip-path="url(#clip0_10132_196830)">
<path fillRule="evenodd" clipRule="evenodd" d="M2.67188 0C2.11959 0 1.67188 0.447715 1.67188 1V19C1.67188 19.5523 2.11959 20 2.67188 20H17.3385C17.8908 20 18.3385 19.5523 18.3385 19V3.33333L15.0052 0H2.67188Z" fill="#E4E7EC"/>
<path fillRule="evenodd" clipRule="evenodd" d="M15.0078 0V3.33333H18.3411L15.0078 0Z" fill="#98A2B3"/>
<rect x="0.835938" y="8.33331" width="18.3333" height="8.33333" rx="1" fill="#0030B1"/>
<path d="M2.66406 15.4091V9.59088H4.84588C5.29285 9.59088 5.66785 9.67421 5.97088 9.84088C6.27581 10.0075 6.50592 10.2367 6.66122 10.5284C6.81842 10.8182 6.89702 11.1477 6.89702 11.517C6.89702 11.8901 6.81842 12.2216 6.66122 12.5113C6.50402 12.8011 6.27202 13.0293 5.9652 13.196C5.65838 13.3608 5.28054 13.4432 4.83168 13.4432H3.38565V12.5767H4.68963C4.95099 12.5767 5.16501 12.5312 5.33168 12.4403C5.49834 12.3494 5.62145 12.2244 5.70099 12.0653C5.78243 11.9062 5.82315 11.7235 5.82315 11.517C5.82315 11.3106 5.78243 11.1288 5.70099 10.9716C5.62145 10.8144 5.4974 10.6922 5.32884 10.6051C5.16217 10.5161 4.94721 10.4716 4.68395 10.4716H3.71804V15.4091H2.66406Z" fill="white"/>
<path d="M9.78409 15.4091H7.8125V9.59088H9.82386C10.4015 9.59088 10.8977 9.70736 11.3125 9.94031C11.7292 10.1714 12.0492 10.5038 12.2727 10.9375C12.4962 11.3712 12.608 11.8901 12.608 12.4943C12.608 13.1004 12.4953 13.6212 12.2699 14.0568C12.0464 14.4924 11.7235 14.8267 11.3011 15.0596C10.8807 15.2926 10.375 15.4091 9.78409 15.4091ZM8.86648 14.4971H9.73295C10.1383 14.4971 10.4763 14.4233 10.7472 14.2755C11.018 14.1259 11.2216 13.9034 11.358 13.6079C11.4943 13.3106 11.5625 12.9394 11.5625 12.4943C11.5625 12.0492 11.4943 11.6799 11.358 11.3863C11.2216 11.0909 11.0199 10.8702 10.7528 10.7244C10.4877 10.5767 10.1581 10.5028 9.7642 10.5028H8.86648V14.4971Z" fill="white"/>
<path d="M13.6094 15.4091V9.59088H17.3366V10.4744H14.6634V12.0539H17.081V12.9375H14.6634V15.4091H13.6094Z" fill="white"/>
</g>
<defs>
<clipPath id="clip0_10132_196830">
<rect width="20" height="20" fill="white"/>
</clipPath>
</defs>
</svg>
