<svg width="45" height="45" viewBox="0 0 45 45" xmlns="http://www.w3.org/2000/svg">
<path d="M15.1667 11.4997C14.1541 11.4997 13.3333 12.3205 13.3333 13.333C13.3333 14.3455 14.1541 15.1663 15.1667 15.1663H29.8333C30.8459 15.1663 31.6667 14.3455 31.6667 13.333C31.6667 12.3205 30.8459 11.4997 29.8333 11.4997H15.1667Z" />
<path d="M13.3333 22.4997C13.3333 21.4872 14.1541 20.6663 15.1667 20.6663H29.8333C30.8459 20.6663 31.6667 21.4872 31.6667 22.4997C31.6667 23.5122 30.8459 24.333 29.8333 24.333H15.1667C14.1541 24.333 13.3333 23.5122 13.3333 22.4997Z" />
<path d="M15.1667 29.833C14.1541 29.833 13.3333 30.6538 13.3333 31.6663C13.3333 32.6789 14.1541 33.4997 15.1667 33.4997H20.0556C21.0681 33.4997 21.8889 32.6789 21.8889 31.6663C21.8889 30.6538 21.0681 29.833 20.0556 29.833H15.1667Z" />
<path d="M24.9444 29.833C23.9319 29.833 23.1111 30.6538 23.1111 31.6663C23.1111 32.6789 23.9319 33.4997 24.9444 33.4997H29.8333C30.8459 33.4997 31.6667 32.6789 31.6667 31.6663C31.6667 30.6538 30.8459 29.833 29.8333 29.833H24.9444Z" />
<path fill-rule="evenodd" clip-rule="evenodd" d="M28.8833 40.6519C29.0895 40.7035 29.2893 40.7774 29.4793 40.8724C33.8535 43.0595 39 39.8787 39 34.9883V9.66634C39 5.61625 35.7168 2.33301 31.6667 2.33301H13.3333C9.28325 2.33301 6 5.61625 6 9.66634V34.9883C6 39.8787 11.1465 43.0595 15.5207 40.8724C15.7107 40.7774 15.9105 40.7035 16.1167 40.6519L21.6107 39.2784C22.1946 39.1325 22.8054 39.1325 23.3893 39.2784L28.8833 40.6519ZM9.66667 9.66634C9.66667 7.6413 11.3083 5.99967 13.3333 5.99967H31.6667C33.6917 5.99967 35.3333 7.6413 35.3333 9.66634V34.9883C35.3333 37.153 33.0553 38.5609 31.1191 37.5928C30.6898 37.3782 30.2383 37.2112 29.7726 37.0947L24.2786 35.7212C23.1108 35.4293 21.8892 35.4293 20.7214 35.7212L15.2274 37.0947C14.7617 37.2112 14.3102 37.3782 13.8809 37.5928C11.9447 38.5609 9.66667 37.153 9.66667 34.9883V9.66634Z" />
</svg>
