<svg width="18" height="19" viewBox="0 0 18 19" xmlns="http://www.w3.org/2000/svg">
<path fill-rule="evenodd" clip-rule="evenodd" d="M9.00046 4.30622C6.23904 4.30622 4.00046 6.54479 4.00046 9.30622C4.00046 12.0676 6.23904 14.3062 9.00046 14.3062C11.7619 14.3062 14.0005 12.0676 14.0005 9.30622C14.0005 6.54479 11.7619 4.30622 9.00046 4.30622ZM5.66713 9.30622C5.66713 7.46527 7.15951 5.97288 9.00046 5.97288C10.8414 5.97288 12.3338 7.46527 12.3338 9.30622C12.3338 11.1472 10.8414 12.6396 9.00046 12.6396C7.15951 12.6396 5.66713 11.1472 5.66713 9.30622Z" />
<path fill-rule="evenodd" clip-rule="evenodd" d="M11.0853 0.996969C9.92287 -0.12757 8.07805 -0.12757 6.91562 0.996969C6.62037 1.2826 6.20983 1.41599 5.80308 1.35846C4.20166 1.13194 2.70917 2.2163 2.42973 3.80933C2.35876 4.21395 2.10503 4.56318 1.74215 4.75572C0.313435 5.51375 -0.256645 7.26828 0.453644 8.72132C0.634053 9.09039 0.634053 9.52205 0.453644 9.89112C-0.256645 11.3442 0.313435 13.0987 1.74215 13.8567C2.10503 14.0493 2.35876 14.3985 2.42973 14.8031C2.70917 16.3961 4.20166 17.4805 5.80308 17.254C6.20983 17.1964 6.62037 17.3298 6.91562 17.6155C8.07805 18.74 9.92287 18.74 11.0853 17.6155C11.3806 17.3298 11.7911 17.1964 12.1978 17.254C13.7993 17.4805 15.2917 16.3961 15.5712 14.8031C15.6422 14.3985 15.8959 14.0493 16.2588 13.8567C17.6875 13.0987 18.2576 11.3442 17.5473 9.89112C17.3669 9.52205 17.3669 9.09039 17.5473 8.72132C18.2576 7.26828 17.6875 5.51375 16.2588 4.75572C15.8959 4.56318 15.6422 4.21395 15.5712 3.80933C15.2917 2.2163 13.7993 1.13194 12.1978 1.35846C11.7911 1.41599 11.3806 1.2826 11.0853 0.996969ZM8.07444 2.19484C8.59076 1.69536 9.41016 1.69536 9.92648 2.19484C10.5912 2.8379 11.5155 3.13822 12.4313 3.0087C13.1426 2.90809 13.8055 3.38972 13.9296 4.09729C14.0894 5.00826 14.6606 5.79451 15.4776 6.22799C16.1122 6.56468 16.3654 7.34399 16.0499 7.98938C15.6438 8.82029 15.6438 9.79215 16.0499 10.6231C16.3654 11.2685 16.1122 12.0478 15.4776 12.3844C14.6606 12.8179 14.0894 13.6042 13.9296 14.5151C13.8055 15.2227 13.1426 15.7043 12.4313 15.6037C11.5155 15.4742 10.5912 15.7745 9.92648 16.4176C9.41016 16.9171 8.59076 16.9171 8.07444 16.4176C7.40971 15.7745 6.48542 15.4742 5.56966 15.6037C4.85837 15.7043 4.19545 15.2227 4.07134 14.5151C3.91154 13.6042 3.3403 12.8179 2.5233 12.3844C1.88871 12.0478 1.6355 11.2685 1.95099 10.6231C2.35716 9.79215 2.35716 8.82029 1.95099 7.98938C1.6355 7.34399 1.88871 6.56468 2.5233 6.22799C3.3403 5.79451 3.91154 5.00826 4.07134 4.09729C4.19545 3.38972 4.85837 2.90809 5.56966 3.0087C6.48542 3.13822 7.40971 2.8379 8.07444 2.19484Z" />
</svg>
