<svg width="44" height="45" viewBox="0 0 44 45" xmlns="http://www.w3.org/2000/svg">
<path d="M13.7494 7.83366C14.7619 7.83366 15.5827 7.01285 15.5827 6.00033C15.5827 4.9878 14.7619 4.16699 13.7494 4.16699H10.9994C6.94926 4.16699 3.66602 7.45024 3.66602 11.5003V33.5003C3.66602 37.5504 6.94926 40.8337 10.9994 40.8337H13.7493C14.7619 40.8337 15.5827 40.0128 15.5827 39.0003C15.5827 37.9878 14.7619 37.167 13.7493 37.167H10.9994C8.97431 37.167 7.33268 35.5254 7.33268 33.5003L7.33268 11.5003C7.33268 9.47528 8.97431 7.83366 10.9994 7.83366H13.7494Z"/>
<path d="M41.629 23.7967C42.345 23.0807 42.345 21.9199 41.629 21.204L34.2957 13.8706C33.5798 13.1547 32.4189 13.1547 31.703 13.8706C30.987 14.5866 30.987 15.7474 31.703 16.4634L35.9066 20.667L14.666 20.667C13.6535 20.667 12.8327 21.4878 12.8327 22.5003C12.8327 23.5128 13.6535 24.3337 14.666 24.3337L35.9066 24.3337L31.703 28.5373C30.987 29.2533 30.987 30.4141 31.703 31.13C32.4189 31.846 33.5798 31.846 34.2957 31.13L41.629 23.7967Z" />
</svg>
