<svg width="14" height="14" viewBox="0 0 14 14" xmlns="http://www.w3.org/2000/svg">
<path fill-rule="evenodd" clip-rule="evenodd" d="M3.49967 2.77051C3.09697 2.77051 2.77051 3.09697 2.77051 3.49967V4.66634C2.77051 5.06905 3.09697 5.39551 3.49967 5.39551H10.4997C10.9024 5.39551 11.2288 5.06905 11.2288 4.66634V3.49967C11.2288 3.09697 10.9024 2.77051 10.4997 2.77051H3.49967ZM1.89551 3.49967C1.89551 2.61372 2.61372 1.89551 3.49967 1.89551H10.4997C11.3856 1.89551 12.1038 2.61372 12.1038 3.49967V4.66634C12.1038 5.5523 11.3856 6.27051 10.4997 6.27051H3.49967C2.61372 6.27051 1.89551 5.5523 1.89551 4.66634V3.49967Z"/>
<path fill-rule="evenodd" clip-rule="evenodd" d="M3.49967 8.60384C3.09697 8.60384 2.77051 8.9303 2.77051 9.33301V10.4997C2.77051 10.9024 3.09697 11.2288 3.49967 11.2288H10.4997C10.9024 11.2288 11.2288 10.9024 11.2288 10.4997V9.33301C11.2288 8.9303 10.9024 8.60384 10.4997 8.60384H3.49967ZM1.89551 9.33301C1.89551 8.44705 2.61372 7.72884 3.49967 7.72884H10.4997C11.3856 7.72884 12.1038 8.44705 12.1038 9.33301V10.4997C12.1038 11.3856 11.3856 12.1038 10.4997 12.1038H3.49967C2.61372 12.1038 1.89551 11.3856 1.89551 10.4997V9.33301Z"/>
</svg>
