<svg width="15" height="15" viewBox="0 0 15 15" xmlns="http://www.w3.org/2000/svg">
<path d="M9.92136 1.98245H5.18798C3.13196 1.98245 1.90625 3.20816 1.90625 5.26419V9.99192C1.90625 12.0536 3.13196 13.2793 5.18798 13.2793H9.91571C11.9717 13.2793 13.1974 12.0536 13.1974 9.99757V5.26419C13.2031 3.20816 11.9774 1.98245 9.92136 1.98245ZM5.08631 11.1047C5.08631 11.3362 4.89427 11.5283 4.66268 11.5283C4.4311 11.5283 4.23905 11.3362 4.23905 11.1047V9.93543C4.23905 9.70385 4.4311 9.5118 4.66268 9.5118C4.89427 9.5118 5.08631 9.70385 5.08631 9.93543V11.1047ZM7.97831 11.1047C7.97831 11.3362 7.78626 11.5283 7.55467 11.5283C7.32309 11.5283 7.13104 11.3362 7.13104 11.1047V8.76056C7.13104 8.52898 7.32309 8.33693 7.55467 8.33693C7.78626 8.33693 7.97831 8.52898 7.97831 8.76056V11.1047ZM10.8703 11.1047C10.8703 11.3362 10.6783 11.5283 10.4467 11.5283C10.2151 11.5283 10.023 11.3362 10.023 11.1047V7.59134C10.023 7.35975 10.2151 7.16771 10.4467 7.16771C10.6783 7.16771 10.8703 7.35975 10.8703 7.59134V11.1047ZM10.8703 5.80644C10.8703 6.03802 10.6783 6.23007 10.4467 6.23007C10.2151 6.23007 10.023 6.03802 10.023 5.80644V5.25854C8.58269 6.73842 6.78084 7.78338 4.76435 8.28609C4.73046 8.29739 4.69657 8.29739 4.66268 8.29739C4.47063 8.29739 4.30118 8.16748 4.25035 7.97543C4.19386 7.74949 4.32942 7.51791 4.56101 7.46142C6.46453 6.98696 8.15905 5.98718 9.50338 4.57508H8.79733C8.56574 4.57508 8.37369 4.38303 8.37369 4.15145C8.37369 3.91986 8.56574 3.72782 8.79733 3.72782H10.4523C10.4749 3.72782 10.4919 3.73911 10.5144 3.73911C10.5427 3.74476 10.5709 3.74476 10.5992 3.75606C10.6274 3.76735 10.65 3.7843 10.6783 3.80124C10.6952 3.81254 10.7121 3.81819 10.7291 3.82949C10.7347 3.83514 10.7347 3.84078 10.7404 3.84078C10.763 3.86338 10.7799 3.88597 10.7969 3.90856C10.8138 3.93116 10.8308 3.9481 10.8364 3.9707C10.8477 3.99329 10.8477 4.01588 10.8534 4.04413C10.859 4.07237 10.8703 4.10061 10.8703 4.1345C10.8703 4.14015 10.8759 4.1458 10.8759 4.15145V5.80644H10.8703Z" />
</svg>
