<svg width="15" height="15" viewBox="0 0 15 15" xmlns="http://www.w3.org/2000/svg">
<path d="M9.99168 1.98245H5.2583C3.20227 1.98245 1.97656 3.20816 1.97656 5.26419V9.99757C1.97656 12.0536 3.20227 13.2793 5.2583 13.2793H9.99168C12.0477 13.2793 13.2734 12.0536 13.2734 9.99757V5.26419C13.2734 3.20816 12.0477 1.98245 9.99168 1.98245ZM6.47836 9.26892L5.20746 10.5398C5.12273 10.6245 5.01541 10.6641 4.90809 10.6641C4.80077 10.6641 4.68781 10.6245 4.60873 10.5398L4.1851 10.1162C4.01564 9.95238 4.01564 9.68125 4.1851 9.51745C4.3489 9.35365 4.61438 9.35365 4.78383 9.51745L4.90809 9.64171L5.87962 8.67019C6.04343 8.50638 6.3089 8.50638 6.47836 8.67019C6.64216 8.83399 6.64216 9.10511 6.47836 9.26892ZM6.47836 5.31502L5.20746 6.58592C5.12273 6.67064 5.01541 6.71018 4.90809 6.71018C4.80077 6.71018 4.68781 6.67064 4.60873 6.58592L4.1851 6.16229C4.01564 5.99848 4.01564 5.72736 4.1851 5.56355C4.3489 5.39975 4.61438 5.39975 4.78383 5.56355L4.90809 5.68782L5.87962 4.71629C6.04343 4.55249 6.3089 4.55249 6.47836 4.71629C6.64216 4.88009 6.64216 5.15122 6.47836 5.31502ZM10.7655 10.2404H7.80009C7.5685 10.2404 7.37646 10.0484 7.37646 9.81682C7.37646 9.58523 7.5685 9.39318 7.80009 9.39318H10.7655C11.0027 9.39318 11.1891 9.58523 11.1891 9.81682C11.1891 10.0484 11.0027 10.2404 10.7655 10.2404ZM10.7655 6.28655H7.80009C7.5685 6.28655 7.37646 6.0945 7.37646 5.86292C7.37646 5.63133 7.5685 5.43929 7.80009 5.43929H10.7655C11.0027 5.43929 11.1891 5.63133 11.1891 5.86292C11.1891 6.0945 11.0027 6.28655 10.7655 6.28655Z" />
</svg>
