<svg width="15" height="14" viewBox="0 0 15 14"  xmlns="http://www.w3.org/2000/svg">
<g clip-path="url(#clip0_5763_340427)">
<path fill-rule="evenodd" clip-rule="evenodd" d="M7.66875 2.91699C6.38008 2.91699 5.33542 3.96166 5.33542 5.25033C5.33542 6.53899 6.38008 7.58366 7.66875 7.58366C8.95741 7.58366 10.0021 6.53899 10.0021 5.25033C10.0021 3.96166 8.95741 2.91699 7.66875 2.91699ZM6.50208 5.25033C6.50208 4.60599 7.02442 4.08366 7.66875 4.08366C8.31308 4.08366 8.83542 4.60599 8.83542 5.25033C8.83542 5.89466 8.31308 6.41699 7.66875 6.41699C7.02442 6.41699 6.50208 5.89466 6.50208 5.25033Z" />
<path fill-rule="evenodd" clip-rule="evenodd" d="M7.66875 12.8337C7.00557 12.8337 6.04934 12.6769 5.32366 12.3434C4.96768 12.1798 4.58573 11.9372 4.36043 11.5742C4.24149 11.3826 4.16635 11.1566 4.16881 10.9052C4.17124 10.6562 4.24934 10.42 4.37723 10.2036C4.962 9.21392 6.17515 8.16699 7.66875 8.16699C9.16234 8.16699 10.3755 9.21392 10.9603 10.2036C11.0882 10.42 11.1663 10.6562 11.1687 10.9052C11.1711 11.1566 11.096 11.3826 10.9771 11.5742C10.7518 11.9372 10.3698 12.1798 10.0138 12.3434C9.28816 12.6769 8.33193 12.8337 7.66875 12.8337ZM5.38165 10.7971C5.33697 10.8727 5.33548 10.9102 5.33542 10.9166C5.33537 10.9208 5.33522 10.9324 5.3517 10.959C5.39802 11.0336 5.53252 11.1554 5.81082 11.2833C6.35368 11.5328 7.13724 11.667 7.66875 11.667C8.20026 11.667 8.98381 11.5328 9.52668 11.2833C9.80497 11.1554 9.93948 11.0336 9.9858 10.959C10.0023 10.9324 10.0021 10.9211 10.0021 10.9169C10.002 10.9105 10.0005 10.8727 9.95585 10.7971C9.50248 10.0298 8.61579 9.33366 7.66875 9.33366C6.7217 9.33366 5.83502 10.0298 5.38165 10.7971Z" />
<path fill-rule="evenodd" clip-rule="evenodd" d="M2.12708 7.00033C2.12708 6.03383 2.91058 5.25033 3.87708 5.25033C4.84358 5.25033 5.62708 6.03383 5.62708 7.00033C5.62708 7.96682 4.84358 8.75033 3.87708 8.75033C2.91058 8.75033 2.12708 7.96682 2.12708 7.00033ZM3.87708 6.41699C3.55492 6.41699 3.29375 6.67816 3.29375 7.00033C3.29375 7.32249 3.55492 7.58366 3.87708 7.58366C4.19925 7.58366 4.46042 7.32249 4.46042 7.00033C4.46042 6.67816 4.19925 6.41699 3.87708 6.41699Z" />
<path d="M2.35793 11.343C2.21469 11.6316 1.86464 11.7494 1.57607 11.6062C1.2875 11.4629 1.16967 11.1129 1.3129 10.8243C1.52721 10.3925 1.85159 9.95903 2.25964 9.62733C2.66786 9.29549 3.19095 9.04199 3.78793 9.04199C4.1101 9.04199 4.37127 9.30316 4.37127 9.62533C4.37127 9.94749 4.1101 10.2087 3.78793 10.2087C3.53069 10.2087 3.2592 10.3183 2.99555 10.5326C2.73174 10.7471 2.50697 11.0427 2.35793 11.343Z" />
<path fill-rule="evenodd" clip-rule="evenodd" d="M9.89128 7.00033C9.89128 6.03383 10.6748 5.25033 11.6413 5.25033C12.6078 5.25033 13.3913 6.03383 13.3913 7.00033C13.3913 7.96682 12.6078 8.75033 11.6413 8.75033C10.6748 8.75033 9.89128 7.96682 9.89128 7.00033ZM11.6413 6.41699C11.3191 6.41699 11.058 6.67816 11.058 7.00033C11.058 7.32249 11.3191 7.58366 11.6413 7.58366C11.9634 7.58366 12.2246 7.32249 12.2246 7.00033C12.2246 6.67816 11.9634 6.41699 11.6413 6.41699Z" />
<path d="M14.0272 10.8243C14.1704 11.1129 14.0526 11.4629 13.764 11.6062C13.4754 11.7494 13.1254 11.6316 12.9821 11.343C12.8331 11.0427 12.6083 10.7471 12.3445 10.5326C12.0809 10.3183 11.8094 10.2087 11.5521 10.2087C11.23 10.2087 10.9688 9.94749 10.9688 9.62533C10.9688 9.30316 11.23 9.04199 11.5521 9.04199C12.1491 9.04199 12.6722 9.29549 13.0804 9.62733C13.4885 9.95903 13.8129 10.3925 14.0272 10.8243Z" />
</g>
<defs>
<clipPath id="clip0_5763_340427">
<rect width="14" height="14" fill="white" transform="translate(0.667969)"/>
</clipPath>
</defs>
</svg>
