<svg width="15" height="15" viewBox="0 0 15 15" xmlns="http://www.w3.org/2000/svg">
<path d="M7.55128 8.26215C8.7991 8.26215 9.81065 7.25059 9.81065 6.00278C9.81065 4.75496 8.7991 3.74341 7.55128 3.74341C6.30347 3.74341 5.29191 4.75496 5.29191 6.00278C5.29191 7.25059 6.30347 8.26215 7.55128 8.26215Z" />
<path d="M4.31021 11.0864C3.50817 12.5945 6.16309 13.3457 7.55128 13.3457C8.93947 13.3457 11.5944 12.5945 10.7924 11.0864C10.1892 9.9522 8.96925 8.82699 7.55128 8.82699C6.13331 8.82699 4.91335 9.9522 4.31021 11.0864Z" />
<path d="M5.00949 7.6973C5.00949 8.32121 4.50371 8.82699 3.87981 8.82699C3.2559 8.82699 2.75012 8.32121 2.75012 7.6973C2.75012 7.0734 3.2559 6.56762 3.87981 6.56762C4.50371 6.56762 5.00949 7.0734 5.00949 7.6973Z" />
<path d="M2.40881 11.9023C2.27011 12.1818 1.93116 12.2958 1.65173 12.1571C1.37231 12.0185 1.25822 11.6795 1.39691 11.4001C1.60442 10.982 1.91852 10.5622 2.31364 10.241C2.70891 9.91972 3.21542 9.67425 3.79348 9.67425C4.10544 9.67425 4.35833 9.92714 4.35833 10.2391C4.35833 10.551 4.10544 10.8039 3.79348 10.8039C3.5444 10.8039 3.28151 10.9101 3.02622 11.1176C2.77077 11.3253 2.55313 11.6116 2.40881 11.9023Z" />
<path d="M12.5276 7.6973C12.5276 8.32121 12.0218 8.82699 11.3979 8.82699C10.774 8.82699 10.2682 8.32121 10.2682 7.6973C10.2682 7.0734 10.774 6.56762 11.3979 6.56762C12.0218 6.56762 12.5276 7.0734 12.5276 7.6973Z" />
<path d="M13.7081 11.4001C13.8468 11.6795 13.7327 12.0185 13.4533 12.1571C13.1739 12.2958 12.8349 12.1818 12.6962 11.9023C12.5519 11.6116 12.3343 11.3253 12.0788 11.1176C11.8235 10.9101 11.5607 10.8039 11.3116 10.8039C10.9996 10.8039 10.7467 10.551 10.7467 10.2391C10.7467 9.92714 10.9996 9.67425 11.3116 9.67425C11.8896 9.67425 12.3961 9.91972 12.7914 10.241C13.1865 10.5622 13.5006 10.982 13.7081 11.4001Z" />
</svg>
