<svg width="45" height="45" viewBox="0 0 45 45" xmlns="http://www.w3.org/2000/svg">
<path fill-rule="evenodd" clip-rule="evenodd" d="M22.5007 4.16699C17.438 4.16699 13.334 8.27105 13.334 13.3337C13.334 18.3963 17.438 22.5003 22.5007 22.5003C27.5633 22.5003 31.6673 18.3963 31.6673 13.3337C31.6673 8.27105 27.5633 4.16699 22.5007 4.16699ZM17.0007 13.3337C17.0007 10.2961 19.4631 7.83366 22.5007 7.83366C25.5382 7.83366 28.0007 10.2961 28.0007 13.3337C28.0007 16.3712 25.5382 18.8337 22.5007 18.8337C19.4631 18.8337 17.0007 16.3712 17.0007 13.3337Z"/>
<path fill-rule="evenodd" clip-rule="evenodd" d="M22.5006 42.667C19.6764 42.667 15.5887 42.0257 12.5189 40.6822C11.0119 40.0226 9.47931 39.0787 8.58886 37.7122C8.12056 36.9936 7.82451 36.1471 7.83422 35.202C7.84383 34.2656 8.15196 33.3685 8.66983 32.5338C11.1804 28.4873 16.3164 24.3337 22.5006 24.3337C28.6849 24.3337 33.8209 28.4873 36.3315 32.5338C36.8493 33.3685 37.1575 34.2656 37.1671 35.202C37.1768 36.1471 36.8807 36.9936 36.4124 37.7122C35.522 39.0787 33.9894 40.0226 32.4824 40.6822C29.4126 42.0257 25.3249 42.667 22.5006 42.667ZM11.7855 34.4669C11.5441 34.856 11.5021 35.1058 11.5007 35.2397C11.4994 35.3649 11.5316 35.512 11.6608 35.7104C11.9655 36.1779 12.7053 36.7613 13.9891 37.3232C16.501 38.4225 20.0683 39.0003 22.5006 39.0003C24.933 39.0003 28.5003 38.4225 31.0122 37.3232C32.296 36.7613 33.0358 36.1779 33.3405 35.7104C33.4697 35.512 33.5019 35.3649 33.5006 35.2397C33.4992 35.1058 33.4572 34.856 33.2158 34.4669C31.1585 31.151 27.0553 28.0003 22.5006 28.0003C17.946 28.0003 13.8428 31.151 11.7855 34.4669Z"/>
</svg>
