<svg width="25" height="25" viewBox="0 0 25 25" xmlns="http://www.w3.org/2000/svg">
<path fill-rule="evenodd" clip-rule="evenodd" d="M5.77246 2.27734C3.56332 2.27734 1.77246 4.0682 1.77246 6.27734V16.2773C1.77246 18.4865 3.56332 20.2773 5.77246 20.2773H19.7725C21.9816 20.2773 23.7725 18.4865 23.7725 16.2773V6.27734C23.7725 4.0682 21.9816 2.27734 19.7725 2.27734H5.77246ZM3.77246 6.27734C3.77246 5.17277 4.66789 4.27734 5.77246 4.27734H19.7725C20.877 4.27734 21.7725 5.17277 21.7725 6.27734V16.2773C21.7725 17.3819 20.877 18.2773 19.7725 18.2773H5.77246C4.66789 18.2773 3.77246 17.3819 3.77246 16.2773V6.27734Z"/>
<path d="M2.77246 21.2773C2.22018 21.2773 1.77246 21.7251 1.77246 22.2773C1.77246 22.8296 2.22018 23.2773 2.77246 23.2773H22.7725C23.3247 23.2773 23.7725 22.8296 23.7725 22.2773C23.7725 21.7251 23.3247 21.2773 22.7725 21.2773H2.77246Z"/>
</svg>
