<svg width="28" height="29" viewBox="0 0 28 29" fill="none" xmlns="http://www.w3.org/2000/svg">
<path d="M14 0.470947C6.26787 0.470947 0 6.75562 0 14.5081C0.737432 33.1281 27.2652 33.1228 28 14.5081C28 6.75562 21.7318 0.470947 14 0.470947Z" fill="#2D8CFF"/>
<path d="M22.34 18.4666C22.325 19.2052 21.7331 19.4545 21.1596 19.0457C20.09 18.2971 19.0278 17.5382 17.9614 16.7854C17.964 17.1338 17.9593 17.9543 17.9611 18.3112C17.9608 18.9732 17.6319 19.2954 16.956 19.2957L11.1981 19.2963C10.2225 19.2965 9.2472 19.2968 8.27163 19.2957C6.42746 19.2936 5.18809 18.0855 5.1875 16.2891V10.6286C5.1875 9.95722 5.50611 9.64421 6.18961 9.64421C8.53306 9.68872 12.6275 9.64922 14.925 9.64509C16.5534 9.64686 17.7315 10.6596 17.9284 12.1563C19.0059 11.3958 20.0791 10.6292 21.1596 9.87263C21.658 9.51099 22.3141 9.62712 22.34 10.4521C22.3471 13.0416 22.3556 15.872 22.34 18.4666Z" fill="#F1F1F1"/>
</svg>
