<svg width="33" height="33" viewBox="0 0 33 33" fill="none" xmlns="http://www.w3.org/2000/svg">
<g clip-path="url(#clip0_5763_31716)">
<path d="M16.5 32.5C25.3366 32.5 32.5 25.3366 32.5 16.5C32.5 7.66344 25.3366 0.5 16.5 0.5C7.66344 0.5 0.5 7.66344 0.5 16.5C0.5 25.3366 7.66344 32.5 16.5 32.5Z" fill="#F0F0F0"/>
<path d="M16.5003 0.5C10.1569 0.5 4.67589 4.19156 2.08789 9.5435H30.9126C28.3246 4.19156 22.8436 0.5 16.5003 0.5Z" fill="#338AF3"/>
<path d="M16.5003 32.5C22.8436 32.5 28.3246 28.8085 30.9126 23.4565H2.08789C4.67589 28.8085 10.1569 32.5 16.5003 32.5Z" fill="#338AF3"/>
<path d="M21.2821 16.5L19.3281 17.4192L20.3686 19.3116L18.2468 18.9057L17.9779 21.0492L16.5 19.4727L15.022 21.0492L14.7531 18.9057L12.6313 19.3116L13.6718 17.4191L11.7178 16.5L13.6718 15.5808L12.6313 13.6884L14.7531 14.0943L15.022 11.9508L16.5 13.5273L17.978 11.9508L18.2468 14.0943L20.3687 13.6884L19.3281 15.5809L21.2821 16.5Z" fill="#FFDA44"/>
</g>
<defs>
<clipPath id="clip0_5763_31716">
<rect width="32" height="32" fill="white" transform="translate(0.5 0.5)"/>
</clipPath>
</defs>
</svg>
