<svg width="33" height="33" viewBox="0 0 33 33" fill="none" xmlns="http://www.w3.org/2000/svg">
<g clip-path="url(#clip0_5763_31676)">
<path d="M22.0656 1.49519C20.3323 0.852063 18.4576 0.5 16.5004 0.5C14.5433 0.5 12.6686 0.852063 10.9353 1.49519L9.54395 16.5L10.9353 31.5048C12.6686 32.148 14.5433 32.5 16.5004 32.5C18.4576 32.5 20.3323 32.148 22.0656 31.5048L23.4569 16.5L22.0656 1.49519Z" fill="#FFDA44"/>
<path d="M32.5002 16.5C32.5002 9.62062 28.1582 3.75586 22.0654 1.49524V31.5049C28.1582 29.2441 32.5002 23.3795 32.5002 16.5Z" fill="#D80027"/>
<path d="M0.5 16.5C0.5 23.3795 4.842 29.2441 10.9348 31.5049V1.49524C4.842 3.75586 0.5 9.62062 0.5 16.5Z" fill="black"/>
</g>
<defs>
<clipPath id="clip0_5763_31676">
<rect width="32" height="32" fill="white" transform="translate(0.5 0.5)"/>
</clipPath>
</defs>
</svg>
