<svg width="33" height="33" viewBox="0 0 33 33" fill="none" xmlns="http://www.w3.org/2000/svg">
<g clip-path="url(#clip0_5763_31725)">
<path d="M16.5 32.5C25.3366 32.5 32.5 25.3366 32.5 16.5C32.5 7.66344 25.3366 0.5 16.5 0.5C7.66344 0.5 0.5 7.66344 0.5 16.5C0.5 25.3366 7.66344 32.5 16.5 32.5Z" fill="#6DA544"/>
<path d="M16.4996 6.76086L29.717 16.5L16.4996 26.2391L3.28223 16.5L16.4996 6.76086Z" fill="#FFDA44"/>
<path d="M16.4998 22.0652C19.5733 22.0652 22.0649 19.5736 22.0649 16.5C22.0649 13.4264 19.5733 10.9348 16.4998 10.9348C13.4262 10.9348 10.9346 13.4264 10.9346 16.5C10.9346 19.5736 13.4262 22.0652 16.4998 22.0652Z" fill="#F0F0F0"/>
<path d="M13.7173 16.1522C12.7496 16.1522 11.8156 16.2994 10.9365 16.5725C10.9755 19.6125 13.4507 22.0653 16.5 22.0653C18.3855 22.0653 20.0507 21.1267 21.0574 19.6923C19.3351 17.5362 16.685 16.1522 13.7173 16.1522Z" fill="#0052B4"/>
<path d="M21.9619 17.5663C22.0289 17.221 22.0651 16.8648 22.0651 16.5C22.0651 13.4264 19.5734 10.9348 16.4999 10.9348C14.2065 10.9348 12.2377 12.3224 11.3857 14.3035C12.1389 14.1474 12.9186 14.0653 13.7173 14.0653C16.9496 14.0652 19.8737 15.4088 21.9619 17.5663Z" fill="#0052B4"/>
</g>
<defs>
<clipPath id="clip0_5763_31725">
<rect width="32" height="32" fill="white" transform="translate(0.5 0.5)"/>
</clipPath>
</defs>
</svg>
