<svg width="37" height="37" viewBox="0 0 37 37" fill="none" xmlns="http://www.w3.org/2000/svg">
<rect x="1.2666" y="0.862549" width="35" height="35" rx="11.5" fill="#0035C3"/>
<rect x="1.2666" y="0.862549" width="35" height="35" rx="11.5" stroke="#0035C3"/>
<path fill-rule="evenodd" clip-rule="evenodd" d="M18.7666 13.3625C18.5284 13.3625 18.2931 13.4151 18.0775 13.5166L14.915 15.0048C14.214 15.3347 13.7666 16.0397 13.7666 16.8145V20.3625C13.7666 20.8614 14.0547 21.3154 14.5061 21.5279L18.0775 23.2085C18.2931 23.3099 18.5284 23.3625 18.7666 23.3625C19.0048 23.3625 19.2401 23.3099 19.4557 23.2085L23.0271 21.5279C23.4785 21.3154 23.7666 20.8614 23.7666 20.3625V16.8145C23.7666 16.0397 23.3192 15.3347 22.6182 15.0048L19.4557 13.5166C19.2401 13.4151 19.0048 13.3625 18.7666 13.3625ZM22.7666 19.5535L19.2666 17.8035V14.5328L22.1924 15.9096C22.5429 16.0746 22.7666 16.4271 22.7666 16.8145V19.5535ZM18.7666 18.6716L22.6337 20.6051C22.6234 20.6117 22.6126 20.6177 22.6013 20.623L19.0299 22.3037C18.9475 22.3425 18.8576 22.3625 18.7666 22.3625C18.6756 22.3625 18.5857 22.3425 18.5033 22.3037L14.9319 20.623C14.9206 20.6177 14.9098 20.6117 14.8995 20.6051L18.7666 18.6716ZM18.2666 17.8035L14.7666 19.5535V16.8145C14.7666 16.4271 14.9903 16.0746 15.3408 15.9096L18.2666 14.5328V17.8035Z" fill="white"/>
</svg>
