    <svg width="152" height="133" viewBox="0 0 152 133" fill="none" xmlns="http://www.w3.org/2000/svg">
<path d="M118.163 132.043L118.733 115.252L106.144 113.346L105.377 132.231" fill="white"/>
<path d="M105.378 132.491C105.311 132.488 105.248 132.459 105.203 132.411C105.157 132.362 105.132 132.298 105.134 132.231L105.901 113.341C105.902 113.305 105.91 113.27 105.926 113.237C105.942 113.205 105.965 113.176 105.993 113.153C106.02 113.131 106.052 113.114 106.086 113.105C106.12 113.096 106.156 113.096 106.191 113.103L118.784 115.008C118.845 115.018 118.901 115.05 118.94 115.098C118.979 115.145 119 115.206 118.998 115.268L118.428 132.038C118.427 132.072 118.419 132.104 118.405 132.135C118.391 132.165 118.371 132.192 118.347 132.215C118.322 132.238 118.294 132.255 118.262 132.267C118.231 132.278 118.198 132.284 118.164 132.282C118.131 132.281 118.098 132.273 118.068 132.259C118.037 132.245 118.01 132.225 117.987 132.201C117.965 132.176 117.947 132.147 117.936 132.116C117.924 132.085 117.919 132.051 117.92 132.018L118.474 115.481L106.384 113.652L105.632 132.252C105.628 132.316 105.6 132.377 105.552 132.422C105.505 132.466 105.443 132.491 105.378 132.491Z" fill="#1E293B"/>
<path d="M56.7324 124.791L71.1349 107.716L84.0127 110.867L67.6029 127.652" fill="white"/>
<path d="M67.6024 127.912C67.5354 127.911 67.4714 127.883 67.4245 127.835C67.4009 127.812 67.3821 127.785 67.3692 127.754C67.3564 127.723 67.3498 127.691 67.3498 127.658C67.3498 127.624 67.3564 127.592 67.3692 127.561C67.3821 127.531 67.4009 127.503 67.4245 127.48L83.5193 111.009L71.2259 108L56.9251 124.959C56.8801 125.009 56.8177 125.04 56.7507 125.046C56.6836 125.051 56.617 125.031 56.5642 124.989C56.5131 124.945 56.4812 124.883 56.4755 124.815C56.4698 124.748 56.4907 124.681 56.5338 124.629L70.9667 107.553C70.997 107.517 71.0369 107.49 71.0819 107.475C71.1269 107.461 71.1751 107.46 71.2208 107.472L84.0987 110.617C84.1415 110.63 84.1806 110.652 84.2125 110.683C84.2445 110.714 84.2682 110.753 84.2816 110.795C84.2934 110.839 84.294 110.884 84.2833 110.928C84.2727 110.971 84.2511 111.011 84.2206 111.044L67.8108 127.815C67.7855 127.846 67.7537 127.87 67.7176 127.887C67.6815 127.904 67.6422 127.912 67.6024 127.912Z" fill="#1E293B"/>
<path d="M112.547 38.8287C112.547 38.8287 92.9715 44.1954 93.1595 44.9577C93.3476 45.72 97.1693 59.8378 97.1693 59.8378L109.366 56.7886L112.547 38.8287Z" fill="#0035C3"/>
<path d="M112.945 38.7118C112.945 38.7118 106.729 40.3787 102.918 42.5742C99.1062 44.7696 100.153 68.1672 100.153 68.1672L128.394 73.8591C128.394 73.8591 133.771 58.6639 133.405 51.7269C133.039 44.7899 128.75 34.9511 112.945 38.7118Z" fill="#0035C3"/>
<path d="M98.8824 56.7633C98.8506 56.7705 98.8176 56.7705 98.7859 56.7633C98.7224 56.7363 98.672 56.6856 98.6454 56.622C98.6188 56.5584 98.6182 56.4869 98.6436 56.4228C100.488 51.8846 103.268 44.9629 103.344 44.4801C103.345 44.4462 103.352 44.4129 103.366 44.382C103.38 44.3511 103.4 44.3232 103.424 44.3C103.449 44.2768 103.478 44.2588 103.51 44.2469C103.541 44.2351 103.575 44.2297 103.609 44.231C103.678 44.2337 103.744 44.2632 103.793 44.3134C103.841 44.3637 103.868 44.4307 103.868 44.5004C103.868 44.9374 100.554 53.1398 99.1264 56.621C99.1038 56.6658 99.0688 56.703 99.0255 56.7283C98.9822 56.7536 98.9325 56.7657 98.8824 56.7633Z" fill="#1E293B"/>
<path d="M114.673 35.8608L112.68 41.8474C112.68 41.8474 112.63 45.4048 116.578 45.0948C117.745 44.9905 118.873 44.6282 119.882 44.034C120.891 43.4398 121.756 42.6287 122.412 41.6593L124.079 30.9261C123.475 30.3991 123.091 29.6647 123.002 28.8679C122.915 28.2715 122.932 27.6644 123.053 27.0739C123.238 26.281 123.534 25.5181 123.932 24.8074C122.054 24.5143 120.332 23.5914 119.048 22.1901C118.743 21.8177 118.458 21.4292 118.194 21.0263C118.072 20.8383 115.567 22.0122 115.303 22.1444C114.012 22.7134 112.911 23.6412 112.132 24.8175C111.615 25.834 111.287 26.9362 111.166 28.07C110.87 29.6281 110.72 31.2104 110.719 32.7963C110.749 35.8201 114.673 35.8608 114.673 35.8608Z" fill="white"/>
<path d="M116.086 45.3488C115.155 45.3934 114.244 45.0745 113.545 44.4595C112.859 43.7614 112.469 42.8256 112.457 41.8473C112.455 41.8236 112.455 41.7998 112.457 41.7761L114.353 36.0792C113.387 35.9877 110.516 35.4948 110.49 32.8115C110.492 31.2135 110.644 29.6193 110.943 28.0496C111.074 26.8821 111.418 25.7487 111.959 24.7056C112.744 23.4915 113.863 22.5298 115.181 21.9359C118.103 20.4926 118.296 20.7874 118.367 20.9195C118.367 20.9195 118.876 21.7123 119.201 22.0579C120.448 23.4253 122.128 24.3224 123.958 24.5989C123.993 24.6056 124.027 24.6207 124.055 24.6429C124.084 24.665 124.107 24.6936 124.122 24.7264C124.137 24.7591 124.145 24.795 124.144 24.8312C124.142 24.8673 124.133 24.9027 124.115 24.9343C123.727 25.6259 123.438 26.3683 123.256 27.1399C123.145 27.7058 123.129 28.2866 123.211 28.8576C123.288 29.5943 123.64 30.2749 124.196 30.7634C124.231 30.7872 124.258 30.8204 124.274 30.8592C124.291 30.8979 124.295 30.9406 124.288 30.9819L122.621 41.7152C122.616 41.7456 122.606 41.7749 122.591 41.8016C121.92 42.8089 121.03 43.652 119.989 44.2679C118.947 44.8839 117.779 45.2568 116.573 45.359C116.416 45.3488 116.248 45.3488 116.086 45.3488ZM112.904 41.888C112.928 42.7244 113.263 43.5218 113.844 44.124C114.216 44.4328 114.65 44.6587 115.116 44.7867C115.582 44.9146 116.071 44.9417 116.548 44.866C117.669 44.7622 118.754 44.4146 119.727 43.8475C120.699 43.2804 121.536 42.5075 122.179 41.583L123.82 31.0226C123.232 30.4609 122.858 29.7114 122.763 28.9034C122.671 28.289 122.684 27.6632 122.804 27.0535C122.967 26.3453 123.224 25.6618 123.566 25.0207C121.751 24.6819 120.096 23.7614 118.85 22.3984C118.586 22.0985 118.195 21.5192 118.042 21.2956C117.133 21.6065 116.245 21.9766 115.384 22.4035C114.145 22.9604 113.089 23.8551 112.335 24.9851C111.829 25.9816 111.505 27.0609 111.38 28.1716C111.088 29.7148 110.938 31.2815 110.932 32.8521C110.963 35.6066 114.49 35.6777 114.652 35.6828C114.688 35.683 114.724 35.6918 114.756 35.7086C114.788 35.7255 114.815 35.7497 114.835 35.7794C114.857 35.8088 114.872 35.8431 114.878 35.8793C114.884 35.9155 114.882 35.9526 114.871 35.9877L112.904 41.888Z" fill="#1E293B"/>
<path d="M121.975 29.9656C122.168 29.5389 122.49 29.1834 122.895 28.9492C123.287 28.7454 123.712 28.6113 124.15 28.5528C124.386 28.497 124.631 28.497 124.867 28.5528C125.029 28.6054 125.18 28.6901 125.309 28.8018C125.639 29.0318 125.875 29.3727 125.975 29.7623C126.016 30.0848 125.979 30.4124 125.868 30.7178C125.773 31.0567 125.632 31.3814 125.451 31.6834C125.264 31.9809 125.02 32.2383 124.732 32.4406C124.445 32.6429 124.12 32.786 123.777 32.8617C123.433 32.9374 123.078 32.944 122.732 32.8813C122.387 32.8186 122.057 32.6878 121.762 32.4965" fill="white"/>
<path d="M123.21 33.0863C122.657 33.0867 122.116 32.928 121.65 32.6289C121.605 32.5997 121.574 32.554 121.562 32.5017C121.551 32.4493 121.561 32.3946 121.589 32.3494C121.603 32.3266 121.622 32.3069 121.643 32.2914C121.665 32.2759 121.69 32.265 121.716 32.2593C121.742 32.2536 121.769 32.2532 121.795 32.2582C121.822 32.2632 121.847 32.2735 121.869 32.2884C122.142 32.4646 122.448 32.5849 122.768 32.6425C123.088 32.7001 123.416 32.6937 123.734 32.6238C124.364 32.4735 124.911 32.0833 125.259 31.5363C125.431 31.2488 125.565 30.9394 125.655 30.6164C125.754 30.3433 125.788 30.0513 125.757 29.7626C125.664 29.4216 125.455 29.1234 125.167 28.919C125.055 28.8262 124.928 28.7539 124.791 28.7056C124.585 28.6604 124.372 28.6604 124.166 28.7056C123.751 28.7631 123.349 28.8903 122.977 29.0816C122.605 29.2972 122.313 29.6269 122.143 30.0218C122.133 30.0465 122.118 30.0689 122.1 30.0876C122.081 30.1064 122.058 30.1213 122.034 30.1312C122.009 30.1412 121.983 30.1461 121.956 30.1456C121.929 30.1452 121.903 30.1393 121.879 30.1285C121.854 30.1192 121.831 30.1047 121.812 30.086C121.793 30.0673 121.777 30.0448 121.767 30.0199C121.757 29.9951 121.753 29.9684 121.753 29.9416C121.754 29.9148 121.761 29.8885 121.772 29.8643C121.978 29.3856 122.335 28.9875 122.789 28.731C123.201 28.5175 123.646 28.3749 124.105 28.3092C124.372 28.2482 124.65 28.2482 124.918 28.3092C125.102 28.3723 125.274 28.4669 125.426 28.5887C125.794 28.8511 126.056 29.2371 126.163 29.6762C126.212 30.0291 126.174 30.3886 126.051 30.7231C125.951 31.0798 125.804 31.4216 125.614 31.7395C125.412 32.0598 125.149 32.337 124.839 32.555C124.529 32.7731 124.18 32.9277 123.81 33.01C123.614 33.0573 123.413 33.0829 123.21 33.0863Z" fill="#1E293B"/>
<path d="M113.656 39.0218C115.106 39.1681 116.562 38.8091 117.778 38.0054C119.709 36.6587 119.811 34.9562 119.811 34.9562C118.193 35.6566 116.433 35.9665 114.673 35.8608L113.656 39.0218Z" fill="#1E293B"/>
<path d="M114.235 39.276C114.028 39.2784 113.821 39.2665 113.615 39.2404C113.583 39.236 113.552 39.2246 113.525 39.2069C113.497 39.1893 113.474 39.1658 113.456 39.1382C113.439 39.1106 113.428 39.0795 113.424 39.0471C113.42 39.0147 113.423 38.9818 113.432 38.9507L114.449 35.7948C114.465 35.7484 114.495 35.7082 114.535 35.6799C114.575 35.6516 114.623 35.6367 114.673 35.6372C116.394 35.7212 118.111 35.4046 119.688 34.7123C119.723 34.6936 119.761 34.6838 119.8 34.6838C119.839 34.6838 119.878 34.6936 119.912 34.7123C119.945 34.7339 119.971 34.7635 119.989 34.7982C120.006 34.8329 120.015 34.8715 120.014 34.9105C120.014 34.9867 119.892 36.7604 117.895 38.1579C116.816 38.8916 115.54 39.2814 114.235 39.276ZM113.946 38.8186C115.253 38.8844 116.546 38.5281 117.635 37.8022C118.537 37.2162 119.197 36.3249 119.495 35.2917C118.008 35.8711 116.42 36.1459 114.825 36.0997L113.946 38.8186Z" fill="#1E293B"/>
<path d="M117.32 25.5902C117.32 25.5902 114.779 28.1312 115.135 28.7614C115.49 29.3916 116.888 29.2696 116.888 29.2696" fill="white"/>
<path d="M116.705 29.5136C116.268 29.5136 115.292 29.4475 114.947 28.8783C114.53 28.1973 116.359 26.2408 117.167 25.4327C117.188 25.4114 117.213 25.3944 117.241 25.3828C117.268 25.3712 117.298 25.3652 117.328 25.3652C117.357 25.3652 117.387 25.3712 117.414 25.3828C117.442 25.3944 117.467 25.4114 117.488 25.4327C117.53 25.4755 117.553 25.5329 117.553 25.5928C117.553 25.6527 117.53 25.7101 117.488 25.7529C116.197 27.0539 115.18 28.3803 115.328 28.6446C115.567 29.046 116.547 29.0765 116.852 29.0613C116.912 29.0598 116.97 29.081 117.014 29.1207C117.059 29.1603 117.086 29.2154 117.091 29.2747C117.093 29.3041 117.088 29.3335 117.078 29.3611C117.068 29.3888 117.053 29.4142 117.033 29.4359C117.013 29.4576 116.989 29.4752 116.963 29.4877C116.936 29.5001 116.907 29.5072 116.878 29.5085L116.705 29.5136Z" fill="#1E293B"/>
<path d="M113.422 30.7584L118.367 30.6924C118.367 30.6924 118.143 34.0465 115.267 34.2498C112.391 34.4531 113.422 30.7584 113.422 30.7584Z" fill="#1E293B"/>
<path d="M118.488 25.5952C118.553 25.4554 118.653 25.335 118.779 25.2458C118.905 25.1567 119.051 25.1019 119.205 25.087C119.774 24.9955 120.064 25.6613 120.064 25.6613" fill="white"/>
<path d="M120.064 25.8646C120.021 25.8654 119.977 25.8534 119.94 25.8299C119.903 25.8064 119.874 25.7725 119.856 25.7325C119.856 25.7325 119.632 25.2243 119.241 25.2903C119.127 25.3016 119.017 25.342 118.923 25.4079C118.828 25.4738 118.752 25.5628 118.702 25.6664C118.682 25.7227 118.64 25.7686 118.586 25.7942C118.532 25.8199 118.469 25.8233 118.413 25.8036C118.358 25.784 118.313 25.7438 118.288 25.6917C118.262 25.6395 118.258 25.5794 118.276 25.5241C118.349 25.3418 118.471 25.1829 118.627 25.0639C118.784 24.9449 118.97 24.8704 119.165 24.8482C119.897 24.7262 120.252 25.519 120.268 25.5546C120.279 25.5816 120.286 25.6107 120.286 25.6402C120.287 25.6696 120.281 25.6989 120.271 25.7263C120.26 25.7537 120.244 25.7786 120.223 25.7998C120.202 25.8209 120.178 25.8377 120.151 25.8493L120.064 25.8646Z" fill="#1E293B"/>
<path d="M113.91 25.163C113.975 25.0232 114.075 24.9027 114.201 24.8136C114.327 24.7245 114.473 24.6697 114.627 24.6548C115.196 24.5582 115.486 25.229 115.486 25.229" fill="white"/>
<path d="M115.486 25.4374C115.441 25.4378 115.398 25.425 115.36 25.4005C115.323 25.3761 115.294 25.3411 115.277 25.3001C115.277 25.3001 115.054 24.7919 114.662 24.8631C114.547 24.8733 114.437 24.9134 114.343 24.9794C114.248 25.0454 114.173 25.1349 114.124 25.2392C114.103 25.2954 114.061 25.3413 114.007 25.367C113.953 25.3927 113.891 25.396 113.834 25.3764C113.779 25.3557 113.734 25.3146 113.708 25.2616C113.683 25.2086 113.679 25.1478 113.697 25.0918C113.771 24.9101 113.893 24.7517 114.049 24.6329C114.206 24.5141 114.391 24.4391 114.586 24.4159C115.318 24.2939 115.674 25.0918 115.689 25.1223C115.701 25.1492 115.708 25.1784 115.709 25.208C115.71 25.2377 115.705 25.2672 115.694 25.2948C115.683 25.3223 115.666 25.3474 115.645 25.3684C115.624 25.3894 115.599 25.406 115.572 25.417C115.545 25.4304 115.516 25.4374 115.486 25.4374Z" fill="#1E293B"/>
<path d="M127.83 73.4984L123.784 127.475L56.5391 113.728L101.241 67.8676L127.83 73.4984Z" fill="#1E293B"/>
<path d="M98.8829 33.9041L19.9082 47.0665L54.6489 11.7566L98.8829 33.9041Z" fill="#1E293B"/>
<path d="M19.9079 47.321C19.8578 47.3213 19.8086 47.3067 19.7667 47.2792C19.7248 47.2516 19.692 47.2122 19.6725 47.166C19.6529 47.1198 19.6474 47.0689 19.6568 47.0196C19.6661 46.9703 19.6899 46.9249 19.725 46.889L54.4657 11.574C54.5038 11.5363 54.5527 11.5116 54.6057 11.5034C54.6586 11.4952 54.7128 11.5039 54.7605 11.5283L98.9741 33.6809C99.0235 33.7029 99.064 33.741 99.0889 33.789C99.1139 33.837 99.1217 33.892 99.1113 33.9451C99.1065 33.9979 99.0852 34.0478 99.0506 34.0879C99.016 34.128 98.9697 34.1562 98.9182 34.1687L19.9486 47.3159L19.9079 47.321ZM54.7046 12.067L20.655 46.6858L98.0695 33.7825L54.7046 12.067Z" fill="#1E293B"/>
<path d="M106.175 86.8845L31.6771 100.286L20.0088 47.5344L98.9428 34.3719L106.175 86.8845Z" fill="#1E293B"/>
<path d="M31.6824 100.54C31.6243 100.541 31.5676 100.522 31.5221 100.486C31.4767 100.45 31.4453 100.399 31.4334 100.342L19.7448 47.5852C19.7308 47.5186 19.7436 47.4493 19.7803 47.3921C19.7995 47.3622 19.8248 47.3368 19.8546 47.3175C19.8844 47.2982 19.918 47.2855 19.9531 47.2803L98.9176 34.1178C98.9855 34.1074 99.0548 34.1238 99.1108 34.1635C99.1385 34.1839 99.1619 34.2098 99.1793 34.2395C99.1968 34.2692 99.2081 34.3021 99.2124 34.3363L106.444 86.8489C106.449 86.8813 106.448 86.9143 106.44 86.9462C106.432 86.978 106.418 87.008 106.399 87.0345C106.38 87.0609 106.355 87.0833 106.327 87.1003C106.299 87.1173 106.268 87.1285 106.236 87.1335L31.7231 100.535L31.6824 100.54ZM20.3139 47.7376L31.8756 99.9961L105.89 86.6761L98.7296 34.6768L20.3139 47.7376Z" fill="#1E293B"/>
<path d="M37.9336 82.829C37.9336 82.829 24.2121 40.4754 17.6055 27.5976L91.1576 7.56421L95.7315 73.1223L37.9336 82.829Z" fill="#0035C3"/>
<path d="M30.4887 35.0069C30.4322 35.0071 30.3772 34.9882 30.3329 34.9531C30.2886 34.918 30.2575 34.8688 30.2448 34.8137C30.2277 34.7491 30.2367 34.6802 30.27 34.6222C30.3033 34.5641 30.3582 34.5216 30.4227 34.5037L84.5107 20.4824C84.5781 20.4656 84.6494 20.4762 84.709 20.5119C84.7685 20.5477 84.8115 20.6056 84.8283 20.673C84.8452 20.7404 84.8345 20.8117 84.7988 20.8713C84.7631 20.9309 84.7051 20.9738 84.6377 20.9906L30.5497 34.9967L30.4887 35.0069Z" fill="white"/>
<path d="M32.7757 43.8751C32.7182 43.8761 32.6622 43.8567 32.6175 43.8205C32.5729 43.7842 32.5425 43.7333 32.5317 43.6769C32.5243 43.6445 32.5234 43.6109 32.5291 43.5782C32.5348 43.5454 32.5471 43.5142 32.5651 43.4862C32.5831 43.4583 32.6065 43.4342 32.6339 43.4155C32.6613 43.3967 32.6923 43.3836 32.7248 43.377L85.0951 31.6274C85.1625 31.6132 85.2328 31.6264 85.2904 31.6641C85.3481 31.7017 85.3884 31.7607 85.4026 31.8281C85.4167 31.8955 85.4035 31.9658 85.3659 32.0234C85.3282 32.0811 85.2692 32.1214 85.2018 32.1356L32.8519 43.87L32.7757 43.8751Z" fill="white"/>
<path d="M37.2629 52.1742C37.2041 52.1751 37.1468 52.1553 37.1012 52.1181C37.0557 52.0809 37.0247 52.0287 37.0139 51.9709C37.0073 51.9382 37.0071 51.9045 37.0134 51.8717C37.0198 51.8389 37.0325 51.8077 37.0509 51.7799C37.0693 51.752 37.093 51.7281 37.1207 51.7094C37.1484 51.6907 37.1794 51.6777 37.2121 51.671L87.2955 41.944C87.3279 41.9374 87.3613 41.9373 87.3937 41.9437C87.4261 41.9501 87.457 41.9629 87.4844 41.9813C87.5119 41.9998 87.5354 42.0235 87.5535 42.0511C87.5717 42.0788 87.5842 42.1097 87.5903 42.1422C87.5977 42.175 87.5983 42.2089 87.5923 42.2419C87.5863 42.2749 87.5736 42.3064 87.5551 42.3344C87.5366 42.3624 87.5126 42.3864 87.4846 42.4049C87.4566 42.4234 87.4251 42.436 87.3921 42.4421L37.3087 52.1691L37.2629 52.1742Z" fill="white"/>
<path d="M39.6463 62.7651C39.5789 62.7705 39.5122 62.7489 39.4607 62.7051C39.4092 62.6612 39.3773 62.5987 39.3719 62.5313C39.3665 62.464 39.3881 62.3972 39.432 62.3457C39.4758 62.2943 39.5383 62.2623 39.6057 62.2569L87.1125 54.5272C87.1798 54.5164 87.2488 54.5328 87.304 54.5728C87.3593 54.6129 87.3964 54.6732 87.4072 54.7406C87.418 54.808 87.4016 54.8769 87.3615 54.9322C87.3215 54.9875 87.2612 55.0246 87.1938 55.0354L39.687 62.76L39.6463 62.7651Z" fill="white"/>
<path d="M64.69 67.9387L20.0088 47.5344L31.6771 100.286L106.175 86.8845L98.9428 34.3719L64.69 67.9387Z" fill="white"/>
<path d="M31.6828 100.54C31.6247 100.541 31.568 100.522 31.5225 100.486C31.477 100.449 31.4457 100.398 31.4338 100.341L19.7451 47.585C19.735 47.5387 19.738 47.4905 19.7538 47.4458C19.7696 47.4011 19.7976 47.3618 19.8346 47.3322C19.8716 47.3026 19.9162 47.2839 19.9632 47.2783C20.0103 47.2727 20.058 47.2803 20.1009 47.3004L64.6245 67.6285L98.7656 34.1684C98.7991 34.1347 98.8415 34.1112 98.8878 34.1004C98.9341 34.0896 98.9825 34.092 99.0275 34.1074C99.0725 34.1227 99.1123 34.1504 99.1424 34.1872C99.1724 34.2241 99.1915 34.2686 99.1975 34.3158L106.429 86.8284C106.434 86.8607 106.433 86.8938 106.425 86.9256C106.417 86.9575 106.404 86.9875 106.384 87.0139C106.365 87.0403 106.34 87.0627 106.312 87.0797C106.284 87.0967 106.253 87.108 106.221 87.1129L31.7235 100.535L31.6828 100.54ZM20.3651 47.9763L31.8759 99.9959L105.891 86.6759L98.7757 34.9053L64.8685 68.1214C64.8312 68.157 64.7841 68.1804 64.7333 68.1885C64.6824 68.1967 64.6303 68.1892 64.5839 68.1672L20.3651 47.9763Z" fill="#1E293B"/>
<path d="M106.18 86.8843L31.6826 100.286L64.6955 67.9385L106.18 86.8843Z" fill="white"/>
<path d="M31.6828 100.54C31.6358 100.541 31.5894 100.528 31.5491 100.504C31.5087 100.48 31.4758 100.445 31.4542 100.403C31.4296 100.355 31.4212 100.3 31.4304 100.247C31.4395 100.194 31.4657 100.145 31.505 100.108L64.5381 67.7559C64.5754 67.7203 64.6225 67.6969 64.6733 67.6888C64.7241 67.6806 64.7762 67.6881 64.8227 67.7102L106.302 86.6509C106.351 86.6739 106.392 86.7118 106.418 86.7593C106.445 86.8067 106.456 86.8612 106.45 86.9151C106.443 86.9683 106.42 87.0181 106.383 87.0574C106.347 87.0966 106.299 87.1233 106.246 87.1337L31.7286 100.54H31.6828ZM64.7465 68.2438L32.4502 99.8895L105.332 86.7779L64.7465 68.2438Z" fill="#1E293B"/>
<path d="M106.18 86.8843L31.6826 100.286L64.6955 67.9385L106.18 86.8843Z" fill="white"/>
<path d="M31.6828 100.54C31.6358 100.541 31.5894 100.528 31.5491 100.504C31.5087 100.48 31.4758 100.445 31.4542 100.403C31.4296 100.355 31.4212 100.3 31.4304 100.247C31.4395 100.194 31.4657 100.145 31.505 100.108L64.5381 67.7559C64.5754 67.7203 64.6225 67.6969 64.6733 67.6888C64.7241 67.6806 64.7762 67.6881 64.8227 67.7102L106.302 86.6509C106.351 86.6739 106.392 86.7118 106.418 86.7593C106.445 86.8067 106.456 86.8612 106.45 86.9151C106.443 86.9683 106.42 87.0181 106.383 87.0574C106.347 87.0966 106.299 87.1233 106.246 87.1337L31.7286 100.54H31.6828ZM64.7465 68.2438L32.4502 99.8895L105.332 86.7779L64.7465 68.2438Z" fill="#1E293B"/>
<path d="M100.997 14.1962C100.997 14.1962 99.9143 18.2618 96.4941 18.3634C96.4941 18.3634 100.102 19.3798 100.86 22.7645C101.196 21.8254 101.751 20.9801 102.479 20.2986C103.208 19.6172 104.088 19.1193 105.047 18.8462C104.065 18.4268 103.191 17.7907 102.489 16.9854C101.788 16.1801 101.277 15.2266 100.997 14.1962Z" fill="#FF9900"/>
<path d="M2.78125 45.0896C2.78125 45.0896 5.5103 48.9926 3.09125 52.0114C3.09125 52.0114 6.59277 49.633 10.0689 51.4472C9.50342 50.4738 9.17846 49.3794 9.12101 48.2551C9.06355 47.1308 9.27526 46.009 9.73854 44.9829C9.73854 44.9829 6.76556 46.7819 2.78125 45.0896Z" fill="#FF9900"/>
<path d="M27.2613 13.2661C27.2613 13.2661 27.8356 20.0659 22.6875 22.0631C22.6875 22.0631 28.73 21.6362 31.7335 26.3828C31.7335 26.3828 31.5201 21.1788 35.9719 18.1449C35.9313 18.1449 30.961 18.2363 27.2613 13.2661Z" fill="#FF9900"/>
<path d="M125.07 47.4884C125.07 47.4884 85.5777 67.5167 79.5656 68.6652C73.5536 69.8137 66.4032 67.8063 66.6878 69.5241C66.9724 71.2418 70.4078 72.0956 70.4078 72.0956C70.4078 72.0956 59.5374 73.8133 60.1066 74.9618C60.6757 76.1104 67.8363 74.6722 67.8363 74.6722C67.8363 74.6722 58.9631 77.2488 60.9654 78.3922C62.9677 79.5357 69.2644 76.9642 69.2644 76.9642C69.2644 76.9642 59.822 81.8277 62.3985 82.1122C64.9751 82.3968 69.554 79.8253 69.554 79.8253C69.554 79.8253 62.3986 83.5454 65.2597 83.83C68.1209 84.1146 110.759 68.9498 125.07 60.3663" fill="white"/>
<path d="M65.346 84.0894H65.2342C64.7005 84.0335 64.3956 83.8505 64.3397 83.5456C64.2533 83.0882 64.8886 82.4479 65.7728 81.7974C64.6887 82.2182 63.5301 82.4136 62.3679 82.3717C61.9766 82.3259 61.753 82.1785 61.7072 81.9193C61.5649 81.157 64.0653 79.546 66.3878 78.2298C64.421 78.8041 61.9969 79.2818 60.8382 78.6211C60.7059 78.5659 60.5944 78.4704 60.5196 78.3481C60.4448 78.2258 60.4104 78.083 60.4215 77.9401C60.518 77.1372 62.5813 76.197 64.5684 75.4753C62.4848 75.7345 60.2538 75.8209 59.8777 75.0789C59.8438 75.0138 59.8262 74.9415 59.8262 74.868C59.8262 74.7946 59.8438 74.7223 59.8777 74.6571C60.3859 73.6407 66.5606 72.4871 69.3201 72.0246C68.2275 71.613 66.6368 70.805 66.4284 69.57C66.4073 69.4659 66.411 69.3582 66.4393 69.2558C66.4675 69.1534 66.5195 69.0591 66.5911 68.9805C67.0993 68.4164 68.6544 68.5079 71.0226 68.6451C73.5229 68.7874 76.6128 68.9653 79.5096 68.4215C85.4149 67.2933 124.552 47.4632 124.943 47.265C125.004 47.2346 125.074 47.2293 125.139 47.2503C125.203 47.2712 125.257 47.3166 125.288 47.3768C125.319 47.4368 125.324 47.5063 125.303 47.5701C125.282 47.6339 125.237 47.6869 125.177 47.7173C123.561 48.5355 85.5826 67.7812 79.6061 68.9195C76.6687 69.4785 73.5077 69.2956 70.9667 69.1533C69.0711 69.0415 67.2822 68.9399 66.9417 69.3159C66.9221 69.3386 66.9086 69.3659 66.9024 69.3952C66.8962 69.4245 66.8975 69.4549 66.9061 69.4836C67.1196 70.7592 69.5234 71.6282 70.4382 71.8569C70.5055 71.8603 70.5688 71.8903 70.6141 71.9403C70.6594 71.9904 70.6829 72.0563 70.6795 72.1237C70.6762 72.1911 70.6462 72.2544 70.5961 72.2997C70.5461 72.345 70.4801 72.3685 70.4127 72.3651C65.7322 73.102 60.5333 74.2811 60.2995 74.9062C60.5993 75.4652 64.4007 75.1145 67.7498 74.4437C67.7831 74.4357 67.8177 74.4343 67.8516 74.4397C67.8855 74.4451 67.918 74.4571 67.9473 74.475C67.9766 74.4929 68.002 74.5164 68.0222 74.5442C68.0423 74.572 68.0568 74.6034 68.0648 74.6368C68.0728 74.6702 68.0742 74.7048 68.0688 74.7387C68.0635 74.7726 68.0515 74.8051 68.0335 74.8343C68.0156 74.8636 67.9921 74.889 67.9643 74.9092C67.9366 74.9294 67.9051 74.9439 67.8717 74.9519C64.5735 75.9073 60.9703 77.3557 60.889 78.0316C60.889 78.0977 60.9907 78.1688 61.0567 78.2095C62.6118 79.0988 67.4143 77.4675 69.1321 76.7611C69.1936 76.7368 69.2621 76.737 69.3235 76.7615C69.3849 76.7861 69.4346 76.8332 69.4624 76.8932C69.489 76.9528 69.4918 77.0203 69.47 77.0818C69.4482 77.1432 69.4037 77.194 69.3455 77.2236C65.9253 78.987 62.2307 81.2485 62.1697 81.8533C62.2415 81.8731 62.3145 81.8884 62.3882 81.899C64.3092 82.1125 67.4702 80.6234 68.7967 79.9526L69.3963 79.6324C69.4557 79.6019 69.5247 79.596 69.5885 79.616C69.6522 79.6359 69.7055 79.6802 69.7368 79.7392C69.753 79.7678 69.7634 79.7994 69.7673 79.8321C69.7712 79.8647 69.7685 79.8979 69.7596 79.9295C69.7506 79.9612 69.7354 79.9908 69.7149 80.0165C69.6945 80.0423 69.6691 80.0638 69.6403 80.0797C69.5996 80.0797 69.3658 80.2372 68.9999 80.4252C66.6266 81.7161 64.7259 83.0882 64.8022 83.4744C64.8022 83.4744 64.8937 83.571 65.2494 83.6066H65.3764C66.9011 83.6066 77.3243 80.2931 90.7866 75.2111C98.1454 72.4363 116.197 65.418 124.943 60.1734C124.971 60.1525 125.004 60.1378 125.038 60.1302C125.072 60.1225 125.108 60.1221 125.142 60.1288C125.177 60.1356 125.21 60.1495 125.238 60.1696C125.267 60.1897 125.292 60.2156 125.31 60.2456C125.328 60.2756 125.34 60.3091 125.345 60.3439C125.35 60.3788 125.347 60.4142 125.338 60.448C125.328 60.4819 125.311 60.5133 125.289 60.5404C125.266 60.5674 125.239 60.5896 125.207 60.6053C111.404 68.8585 69.3658 84.0894 65.346 84.0894Z" fill="#1E293B"/>
<path d="M117.772 64.4167C117.772 64.4167 111.674 50.1108 112.238 49.9177C112.802 49.7246 124.435 42.0965 125.406 42.6708C126.376 43.245 129.979 54.3086 128.836 57.5509C127.692 60.7933 117.772 64.4167 117.772 64.4167Z" fill="#0035C3"/>
<path d="M119.297 64.4881C119.242 64.4879 119.188 64.4707 119.144 64.4389C119.099 64.407 119.065 64.362 119.048 64.3102C119.027 64.2442 119.032 64.1725 119.064 64.1107C119.095 64.049 119.15 64.002 119.215 63.9799C119.302 63.9494 127.768 61.0933 131.112 56.8142C131.134 56.7874 131.16 56.7651 131.19 56.7485C131.22 56.7319 131.253 56.7214 131.287 56.7176C131.321 56.7139 131.355 56.7169 131.388 56.7265C131.421 56.7361 131.452 56.7521 131.478 56.7736C131.506 56.794 131.529 56.8199 131.547 56.8497C131.564 56.8795 131.575 56.9125 131.58 56.9467C131.584 56.9809 131.581 57.0157 131.572 57.0488C131.562 57.082 131.546 57.1128 131.524 57.1395C128.083 61.5405 119.734 64.361 119.383 64.4779C119.355 64.4863 119.326 64.4897 119.297 64.4881Z" fill="#1E293B"/>
<path d="M126.061 33.4009C125.999 33.3995 125.939 33.376 125.893 33.3346C125.847 33.2932 125.817 33.2366 125.809 33.1752C125.801 33.1137 125.816 33.0514 125.85 32.9996C125.884 32.9477 125.935 32.9098 125.995 32.8927C126.943 32.6096 127.816 32.117 128.549 31.4511C129.282 30.7852 129.856 29.9631 130.228 29.0456C130.969 27.1704 131.145 25.1196 130.736 23.1454C130.452 21.2368 129.622 19.451 128.348 18.0023C127.709 17.3011 126.921 16.7538 126.04 16.4017C125.16 16.0496 124.211 15.9018 123.266 15.9695L122.895 16.0204C122.617 16.0668 122.337 16.0923 122.056 16.0966C121.713 16.0801 121.373 16.0307 121.04 15.9492L120.821 15.9035C119.03 15.5453 117.177 15.6454 115.435 16.1945C113.692 16.7436 112.117 17.7238 110.855 19.0444C109.593 20.3649 108.684 21.9829 108.214 23.7482C107.745 25.5135 107.728 27.3688 108.167 29.1421C108.289 29.6503 108.584 30.4584 109.209 30.5346C109.243 30.5377 109.276 30.5478 109.307 30.5642C109.337 30.5807 109.364 30.6031 109.385 30.6302C109.407 30.6574 109.422 30.6885 109.431 30.7219C109.44 30.7553 109.442 30.7901 109.437 30.8243C109.434 30.8584 109.423 30.8915 109.406 30.9215C109.39 30.9515 109.367 30.9779 109.34 30.9992C109.313 31.0205 109.282 31.0362 109.249 31.0454C109.216 31.0547 109.182 31.0572 109.148 31.053C108.451 30.9666 107.923 30.3364 107.659 29.2692C107.194 27.4078 107.208 25.4591 107.699 23.6045C108.19 21.7499 109.143 20.0497 110.467 18.662C111.792 17.2744 113.446 16.2444 115.276 15.6679C117.106 15.0914 119.052 14.9871 120.933 15.3648L121.162 15.4105C121.468 15.4878 121.781 15.5337 122.097 15.5477C122.349 15.541 122.6 15.5172 122.849 15.4766C122.981 15.4766 123.108 15.4359 123.24 15.4258C124.265 15.3433 125.295 15.4991 126.25 15.8808C127.205 16.2625 128.058 16.8599 128.744 17.6263C130.097 19.1465 130.98 21.0266 131.285 23.0386C131.71 25.1151 131.518 27.2705 130.731 29.2387C130.329 30.2291 129.709 31.1162 128.917 31.8341C128.126 32.5521 127.182 33.0824 126.157 33.3856L126.061 33.4009Z" fill="#1E293B"/>
<path d="M122.092 15.8224C122.092 15.8224 124.734 13.8607 129.029 14.9076C133.323 15.9545 134.944 23.7809 130.935 27.9786C130.935 27.9786 131.56 16.539 122.092 15.8224Z" fill="#1E293B"/>
<path d="M137.373 40.3586H137.348C135.315 40.2334 133.367 39.4984 131.758 38.2496C130.951 37.6132 130.302 36.7992 129.861 35.8711C129.421 34.9429 129.2 33.9255 129.217 32.8982C129.217 32.8635 129.225 32.8292 129.239 32.7976C129.254 32.766 129.274 32.7376 129.3 32.7143C129.326 32.6909 129.356 32.6731 129.389 32.6619C129.422 32.6507 129.457 32.6464 129.491 32.6492C129.526 32.6505 129.56 32.6586 129.591 32.6732C129.622 32.6878 129.65 32.7084 129.673 32.734C129.697 32.7596 129.714 32.7895 129.726 32.8221C129.737 32.8546 129.742 32.8891 129.74 32.9236C129.726 33.868 129.929 34.8031 130.335 35.6562C130.74 36.5094 131.337 37.2576 132.078 37.843C133.319 38.8195 134.791 39.46 136.352 39.703C135.923 39.2228 135.65 38.6239 135.569 37.9853C135.486 37.0225 135.634 36.0537 136.001 35.1597C136.614 33.6412 137.36 32.1803 138.232 30.7942C139.498 28.6344 140.692 26.5965 140.956 24.2283C141.111 22.8603 140.928 21.4753 140.424 20.1942C139.92 18.9132 139.11 17.775 138.065 16.8791C137.02 15.9832 135.771 15.357 134.428 15.055C133.085 14.753 131.688 14.7845 130.36 15.1467C130.293 15.1641 130.221 15.1548 130.161 15.1206C130.1 15.0865 130.055 15.0303 130.035 14.9637C130.026 14.9307 130.023 14.8961 130.027 14.8621C130.032 14.8281 130.042 14.7952 130.06 14.7654C130.077 14.7356 130.099 14.7095 130.126 14.6886C130.154 14.6677 130.185 14.6524 130.218 14.6436C131.63 14.2581 133.115 14.2244 134.543 14.5455C135.971 14.8665 137.298 15.5324 138.409 16.4851C139.52 17.4378 140.381 18.6481 140.916 20.0103C141.452 21.3726 141.645 22.8452 141.48 24.2994C141.2 26.7743 139.919 28.9545 138.685 31.0687C137.842 32.4243 137.119 33.851 136.525 35.3325C136.179 36.1448 136.039 37.0298 136.118 37.9091C136.157 38.3223 136.303 38.7182 136.541 39.0585C136.779 39.3987 137.1 39.6715 137.475 39.8504C137.531 39.8737 137.577 39.9156 137.606 39.969C137.635 40.0224 137.644 40.0841 137.633 40.1437C137.622 40.2033 137.59 40.2572 137.544 40.2963C137.498 40.3355 137.439 40.3575 137.378 40.3586H137.373Z" fill="#1E293B"/>
<path d="M114.052 52.042C113.987 52.0535 113.92 52.0402 113.865 52.0047C113.809 51.9693 113.769 51.9144 113.751 51.8507C113.734 51.787 113.741 51.7191 113.772 51.6605C113.802 51.6019 113.853 51.5567 113.915 51.5338L124.359 45.0949C124.418 45.059 124.489 45.048 124.557 45.0641C124.624 45.0803 124.683 45.1224 124.719 45.1813C124.738 45.2106 124.75 45.2432 124.756 45.2773C124.761 45.3114 124.76 45.3463 124.752 45.3799C124.744 45.4136 124.729 45.4452 124.709 45.4731C124.688 45.5009 124.663 45.5244 124.633 45.5421L114.189 51.9811C114.15 52.014 114.103 52.0351 114.052 52.042Z" fill="#1E293B"/>
<path d="M0.448618 71.0335C0.386618 71.0335 0.327156 71.0089 0.283315 70.9651C0.239474 70.9212 0.214844 70.8618 0.214844 70.7998C0.214844 70.7378 0.239474 70.6783 0.283315 70.6345C0.327156 70.5906 0.386618 70.566 0.448618 70.566L16.2029 69.7071C16.2343 69.7035 16.2662 69.7067 16.2963 69.7163C16.3264 69.7259 16.3542 69.7418 16.3777 69.7629C16.4012 69.7841 16.42 69.8099 16.4328 69.8389C16.4456 69.8678 16.4521 69.8991 16.4519 69.9307C16.4547 69.9919 16.4334 70.0518 16.3925 70.0974C16.3516 70.143 16.2945 70.1708 16.2334 70.1747L0.479109 71.0335H0.448618Z" fill="#FF9900"/>
<path d="M38.2234 119.399C38.1785 119.4 38.1343 119.388 38.0964 119.364C38.0445 119.329 38.0081 119.276 37.9948 119.215C37.9815 119.155 37.9924 119.091 38.0252 119.038L45.755 107.019C45.7706 106.991 45.7918 106.967 45.8173 106.948C45.8427 106.928 45.8718 106.914 45.9029 106.907C45.9339 106.899 45.9662 106.898 45.9977 106.903C46.0292 106.909 46.0593 106.92 46.0861 106.938C46.1129 106.955 46.1359 106.978 46.1536 107.004C46.1713 107.031 46.1833 107.061 46.1889 107.093C46.1946 107.124 46.1937 107.156 46.1864 107.187C46.179 107.219 46.1654 107.248 46.1463 107.273L38.4419 119.292C38.4188 119.329 38.3862 119.358 38.3476 119.376C38.3091 119.395 38.2661 119.403 38.2234 119.399Z" fill="#FF9900"/>
<path d="M9.03204 99.94C8.99036 99.9396 8.94954 99.9281 8.9138 99.9067C8.87806 99.8852 8.8487 99.8546 8.82877 99.818C8.81363 99.7914 8.80399 99.7621 8.8004 99.7317C8.79682 99.7013 8.79937 99.6705 8.8079 99.6411C8.81643 99.6118 8.83076 99.5844 8.85006 99.5606C8.86936 99.5369 8.89322 99.5173 8.92024 99.5029L20.6546 92.9166C20.7094 92.8872 20.7735 92.8803 20.8333 92.8974C20.8931 92.9145 20.9438 92.9542 20.9748 93.0081C20.9902 93.0348 21.0003 93.0642 21.0043 93.0948C21.0083 93.1253 21.0062 93.1564 20.9982 93.1862C20.9902 93.2159 20.9763 93.2438 20.9575 93.2682C20.9387 93.2926 20.9152 93.313 20.8884 93.3283L9.15401 99.9349C9.11453 99.9474 9.07243 99.9491 9.03204 99.94Z" fill="#FF9900"/>
<path d="M96.031 8.64658C95.9933 8.64647 95.9563 8.63728 95.9229 8.61977C95.8896 8.60227 95.861 8.57697 95.8395 8.54603C95.8181 8.5151 95.8044 8.47944 95.7997 8.44208C95.795 8.40473 95.7994 8.36679 95.8124 8.33149L98.6736 0.627142C98.6982 0.573398 98.7422 0.530941 98.7967 0.508309C98.8513 0.485678 98.9124 0.48455 98.9678 0.505154C99.0232 0.525758 99.0687 0.566566 99.0952 0.619368C99.1217 0.672171 99.1272 0.733052 99.1107 0.789767L96.2495 8.51445C96.2303 8.55571 96.1993 8.59032 96.1604 8.61386C96.1215 8.63739 96.0764 8.64879 96.031 8.64658Z" fill="#FF9900"/>
<path d="M139.244 55.2945C139.189 55.2952 139.135 55.276 139.093 55.2406C139.051 55.2051 139.023 55.1557 139.015 55.1014C139.01 55.071 139.011 55.0399 139.018 55.0099C139.025 54.98 139.038 54.9516 139.056 54.9266C139.073 54.9016 139.096 54.8803 139.122 54.8641C139.149 54.8479 139.178 54.837 139.208 54.8321L151.512 52.7992C151.573 52.7903 151.635 52.8055 151.685 52.8415C151.735 52.8775 151.77 52.9316 151.781 52.9924C151.786 53.0227 151.785 53.0538 151.778 53.0838C151.771 53.1138 151.758 53.1421 151.74 53.1672C151.722 53.1922 151.7 53.2134 151.674 53.2297C151.647 53.2459 151.618 53.2568 151.588 53.2617L139.279 55.2691L139.244 55.2945Z" fill="#FF9900"/>
<path d="M138.959 106.237C138.924 106.237 138.889 106.229 138.857 106.213C138.825 106.197 138.797 106.174 138.776 106.145L131.047 96.4183C131.009 96.3687 130.992 96.3065 131 96.2449C131.007 96.1832 131.039 96.1269 131.087 96.0879C131.111 96.0686 131.138 96.0541 131.167 96.0454C131.196 96.0367 131.227 96.0339 131.257 96.0372C131.288 96.0406 131.317 96.0499 131.344 96.0647C131.37 96.0795 131.394 96.0995 131.412 96.1235L139.142 105.856C139.161 105.88 139.176 105.908 139.184 105.938C139.192 105.967 139.195 105.999 139.191 106.029C139.187 106.06 139.177 106.09 139.162 106.117C139.147 106.143 139.126 106.167 139.102 106.186C139.061 106.217 139.011 106.235 138.959 106.237Z" fill="#FF9900"/>
<path d="M18.6629 23.613C18.6069 23.6137 18.5527 23.5938 18.5104 23.5571L12.9862 18.8105C12.9437 18.7661 12.9199 18.7069 12.9199 18.6454C12.9199 18.5838 12.9437 18.5246 12.9862 18.4802C13.0058 18.4562 13.0301 18.4364 13.0575 18.422C13.085 18.4077 13.1151 18.399 13.146 18.3967C13.1768 18.3943 13.2079 18.3982 13.2372 18.4082C13.2666 18.4182 13.2935 18.434 13.3166 18.4548L18.8407 23.2014C18.8647 23.221 18.8845 23.2452 18.8989 23.2727C18.9132 23.3001 18.9219 23.3302 18.9242 23.3611C18.9266 23.392 18.9227 23.4231 18.9127 23.4524C18.9027 23.4817 18.8869 23.5087 18.8661 23.5317C18.8421 23.5616 18.8107 23.5847 18.7751 23.599C18.7395 23.6132 18.7009 23.6181 18.6629 23.613Z" fill="#FF9900"/>
<path d="M115.923 82.4986C115.88 82.4988 115.838 82.4883 115.801 82.4681C115.771 82.4527 115.746 82.4315 115.725 82.406C115.704 82.3804 115.688 82.3509 115.678 82.3192C115.669 82.2875 115.666 82.2542 115.669 82.2213C115.673 82.1884 115.683 82.1566 115.699 82.1276L121.233 72.0144C121.26 71.9649 121.303 71.9259 121.354 71.9038C121.406 71.8817 121.464 71.8776 121.518 71.8924C121.573 71.9053 121.621 71.9365 121.655 71.981C121.69 72.0254 121.707 72.0803 121.706 72.1364V81.1011C121.706 81.1685 121.679 81.2331 121.632 81.2807C121.584 81.3284 121.519 81.3552 121.452 81.3552C121.384 81.3552 121.32 81.3284 121.272 81.2807C121.225 81.2331 121.198 81.1685 121.198 81.1011V73.1274L116.116 82.3716C116.096 82.4065 116.068 82.4362 116.034 82.4583C116.001 82.4804 115.963 82.4942 115.923 82.4986Z" fill="white"/>
</svg>
