<svg width="40" height="41" viewBox="0 0 40 41" fill="none" xmlns="http://www.w3.org/2000/svg">
<rect y="0.949219" width="40" height="40" rx="20" fill="#E6EBF9"/>
<path d="M17.0834 19.2826C17.0834 19.0525 17.27 18.8659 17.5001 18.8659H22.5001C22.7302 18.8659 22.9167 19.0525 22.9167 19.2826V22.6159C22.9167 22.846 22.7302 23.0326 22.5001 23.0326H17.5001C17.27 23.0326 17.0834 22.846 17.0834 22.6159V19.2826Z" fill="#5478D7"/>
<path fill-rule="evenodd" clip-rule="evenodd" d="M23.7501 12.6159C24.2103 12.6159 24.5834 12.989 24.5834 13.4492V15.1159C24.5834 15.1274 24.5832 15.1389 24.5827 15.1504C25.3308 15.2756 25.9662 15.7331 26.3323 16.3659H27.5001C27.9603 16.3659 28.3334 16.739 28.3334 17.1992C28.3334 17.6595 27.9603 18.0326 27.5001 18.0326H26.6667V18.8659H27.5001C27.9603 18.8659 28.3334 19.239 28.3334 19.6992C28.3334 20.1595 27.9603 20.5326 27.5001 20.5326H26.6667V21.3659H27.5001C27.9603 21.3659 28.3334 21.739 28.3334 22.1992C28.3334 22.6595 27.9603 23.0326 27.5001 23.0326H26.6667V23.8659H27.5001C27.9603 23.8659 28.3334 24.239 28.3334 24.6992C28.3334 25.1595 27.9603 25.5326 27.5001 25.5326H26.3323C26.0345 26.0473 25.5585 26.446 24.9887 26.6443C24.9962 26.6893 25.0001 26.7355 25.0001 26.7826V28.4492C25.0001 28.9095 24.627 29.2826 24.1667 29.2826C23.7065 29.2826 23.3334 28.9095 23.3334 28.4492V26.7826H22.5001V28.4492C22.5001 28.9095 22.127 29.2826 21.6667 29.2826C21.2065 29.2826 20.8334 28.9095 20.8334 28.4492V26.7826H20.0001V28.4492C20.0001 28.9095 19.627 29.2826 19.1667 29.2826C18.7065 29.2826 18.3334 28.9095 18.3334 28.4492V26.7826H17.5001V28.4492C17.5001 28.9095 17.127 29.2826 16.6667 29.2826C16.2065 29.2826 15.8334 28.9095 15.8334 28.4492V26.7826C14.9081 26.7826 14.1001 26.2798 13.6679 25.5326H12.5001C12.0398 25.5326 11.6667 25.1595 11.6667 24.6992C11.6667 24.239 12.0398 23.8659 12.5001 23.8659H13.3334V23.0326H12.5001C12.0398 23.0326 11.6667 22.6595 11.6667 22.1992C11.6667 21.739 12.0398 21.3659 12.5001 21.3659H13.3334V20.5326H12.5001C12.0398 20.5326 11.6667 20.1595 11.6667 19.6992C11.6667 19.239 12.0398 18.8659 12.5001 18.8659H13.3334V18.0326H12.5001C12.0398 18.0326 11.6667 17.6595 11.6667 17.1992C11.6667 16.739 12.0398 16.3659 12.5001 16.3659H13.6679C14.0339 15.7331 14.6694 15.2756 15.4174 15.1504C15.417 15.1389 15.4167 15.1274 15.4167 15.1159V13.4492C15.4167 12.989 15.7898 12.6159 16.2501 12.6159C16.7103 12.6159 17.0834 12.989 17.0834 13.4492V15.1159H17.9167V13.4492C17.9167 12.989 18.2898 12.6159 18.7501 12.6159C19.2103 12.6159 19.5834 12.989 19.5834 13.4492V15.1159H20.4167V13.4492C20.4167 12.989 20.7898 12.6159 21.2501 12.6159C21.7103 12.6159 22.0834 12.989 22.0834 13.4492V15.1159H22.9167V13.4492C22.9167 12.989 23.2898 12.6159 23.7501 12.6159ZM17.5001 17.1992C16.3495 17.1992 15.4167 18.132 15.4167 19.2826V22.6159C15.4167 23.7665 16.3495 24.6992 17.5001 24.6992H22.5001C23.6507 24.6992 24.5834 23.7665 24.5834 22.6159V19.2826C24.5834 18.132 23.6507 17.1992 22.5001 17.1992H17.5001Z" fill="#5478D7"/>
</svg>
