<svg width="28" height="28" viewBox="0 0 28 28" fill="none" xmlns="http://www.w3.org/2000/svg">
<circle cx="13.6304" cy="13.6739" r="13.5562" fill="#EADAFF"/>
<path d="M15.9966 8.02466H11.2632C9.20715 8.02466 7.98145 9.25037 7.98145 11.3064V16.0398C7.98145 18.0958 9.20715 19.3215 11.2632 19.3215H15.9966C18.0526 19.3215 19.2783 18.0958 19.2783 16.0398V11.3064C19.2783 9.25037 18.0526 8.02466 15.9966 8.02466ZM12.4832 15.3111L11.2123 16.582C11.1276 16.6667 11.0203 16.7063 10.913 16.7063C10.8057 16.7063 10.6927 16.6667 10.6136 16.582L10.19 16.1584C10.0205 15.9946 10.0205 15.7235 10.19 15.5597C10.3538 15.3959 10.6193 15.3959 10.7887 15.5597L10.913 15.6839L11.8845 14.7124C12.0483 14.5486 12.3138 14.5486 12.4832 14.7124C12.647 14.8762 12.647 15.1473 12.4832 15.3111ZM12.4832 11.3572L11.2123 12.6281C11.1276 12.7128 11.0203 12.7524 10.913 12.7524C10.8057 12.7524 10.6927 12.7128 10.6136 12.6281L10.19 12.2045C10.0205 12.0407 10.0205 11.7696 10.19 11.6058C10.3538 11.442 10.6193 11.442 10.7887 11.6058L10.913 11.73L11.8845 10.7585C12.0483 10.5947 12.3138 10.5947 12.4832 10.7585C12.647 10.9223 12.647 11.1934 12.4832 11.3572ZM16.7704 16.2827H13.805C13.5734 16.2827 13.3813 16.0906 13.3813 15.859C13.3813 15.6274 13.5734 15.4354 13.805 15.4354H16.7704C17.0076 15.4354 17.194 15.6274 17.194 15.859C17.194 16.0906 17.0076 16.2827 16.7704 16.2827ZM16.7704 12.3288H13.805C13.5734 12.3288 13.3813 12.1367 13.3813 11.9051C13.3813 11.6735 13.5734 11.4815 13.805 11.4815H16.7704C17.0076 11.4815 17.194 11.6735 17.194 11.9051C17.194 12.1367 17.0076 12.3288 16.7704 12.3288Z" fill="#1B1B1B"/>
</svg>
