<svg width="40" height="41" viewBox="0 0 40 41" fill="none" xmlns="http://www.w3.org/2000/svg">
<rect y="0.949219" width="40" height="40" rx="20" fill="#E6EBF9"/>
<path fill-rule="evenodd" clip-rule="evenodd" d="M15 19.2826V16.7826C15 14.0212 17.2386 11.7826 20 11.7826C22.7614 11.7826 25 14.0212 25 16.7826V19.2826C26.3807 19.2826 27.5 20.4019 27.5 21.7826V26.7826C27.5 28.1633 26.3807 29.2826 25 29.2826H15C13.6193 29.2826 12.5 28.1633 12.5 26.7826V21.7826C12.5 20.4019 13.6193 19.2826 15 19.2826ZM16.6667 16.7826C16.6667 14.9416 18.1591 13.4493 20 13.4493C21.8409 13.4493 23.3333 14.9416 23.3333 16.7826V19.2826H16.6667V16.7826ZM20 22.6159C20.4602 22.6159 20.8333 22.989 20.8333 23.4493V25.1159C20.8333 25.5762 20.4602 25.9493 20 25.9493C19.5398 25.9493 19.1667 25.5762 19.1667 25.1159V23.4493C19.1667 22.989 19.5398 22.6159 20 22.6159Z" fill="#5478D7"/>
</svg>
