<svg width="18" height="18" viewBox="0 0 18 18" fill="none" xmlns="http://www.w3.org/2000/svg">
<path fill-rule="evenodd" clip-rule="evenodd" d="M8.16699 0.666626C4.02486 0.666626 0.666992 4.02449 0.666992 8.16663C0.666992 12.3088 4.02486 15.6666 8.16699 15.6666C9.93784 15.6666 11.5653 15.0529 12.8484 14.0265L15.9111 17.0892C16.2365 17.4147 16.7641 17.4147 17.0896 17.0892C17.415 16.7638 17.415 16.2361 17.0896 15.9107L14.0269 12.848C15.0533 11.565 15.667 9.93747 15.667 8.16663C15.667 4.02449 12.3091 0.666626 8.16699 0.666626ZM2.33366 8.16663C2.33366 4.94497 4.94533 2.33329 8.16699 2.33329C11.3887 2.33329 14.0003 4.94497 14.0003 8.16663C14.0003 11.3883 11.3887 14 8.16699 14C4.94533 14 2.33366 11.3883 2.33366 8.16663Z" fill="#667185"/>
</svg>
