<svg width="40" height="41" viewBox="0 0 40 41" fill="none" xmlns="http://www.w3.org/2000/svg">
<rect y="0.949219" width="40" height="40" rx="20" fill="#E6EBF9"/>
<path d="M14.1667 13.3658H22.5001C23.8808 13.3658 25.0001 14.4851 25.0001 15.8658V17.8242H22.2917C21.1412 17.8242 20.2084 18.757 20.2084 19.9076V24.0325H19.1668V25.1991C19.627 25.1991 20.0001 25.5722 20.0001 26.0325C20.0001 26.4927 19.627 26.8658 19.1667 26.8658H15.6668C15.2065 26.8658 14.8334 26.4927 14.8334 26.0325C14.8334 25.5722 15.2065 25.1991 15.6668 25.1991H17.5001V24.0325L14.1667 24.0325C12.786 24.0325 11.6667 22.9132 11.6667 21.5325V15.8658C11.6667 14.4851 12.786 13.3658 14.1667 13.3658Z" fill="#5478D7"/>
<path d="M22.5001 18.4492H22.6116C22.7557 18.6983 23.025 18.8659 23.3334 18.8659H25.0001C25.3085 18.8659 25.5778 18.6983 25.7219 18.4492H25.8334C26.7539 18.4492 27.5001 19.1954 27.5001 20.1159V26.7825C27.5001 27.703 26.7539 28.4492 25.8334 28.4492H22.5001C21.5796 28.4492 20.8334 27.703 20.8334 26.7825V20.1159C20.8334 19.1954 21.5796 18.4492 22.5001 18.4492Z" fill="#5478D7"/>
</svg>
