<svg width="28" height="28" viewBox="0 0 28 28" fill="none" xmlns="http://www.w3.org/2000/svg">
<circle cx="13.9634" cy="13.6317" r="13.5562" fill="#DEE3FF"/>
<path d="M16.2238 7.98242H11.7051C9.72812 7.98242 8.88086 9.11211 8.88086 10.8066V16.4551C8.88086 18.1496 9.72812 19.2793 11.7051 19.2793H16.2238C18.2008 19.2793 19.048 18.1496 19.048 16.4551V10.8066C19.048 9.11211 18.2008 7.98242 16.2238 7.98242ZM13.1341 16.1557C13.2979 16.3195 13.2979 16.5906 13.1341 16.7544C13.0494 16.8392 12.9421 16.8787 12.8348 16.8787C12.7274 16.8787 12.6201 16.8392 12.5354 16.7544L11.4057 15.6247C11.2419 15.4609 11.2419 15.1898 11.4057 15.026L12.5354 13.8963C12.6992 13.7325 12.9703 13.7325 13.1341 13.8963C13.2979 14.0601 13.2979 14.3312 13.1341 14.4951L12.3038 15.3254L13.1341 16.1557ZM16.5232 15.6247L15.3935 16.7544C15.3088 16.8392 15.2014 16.8787 15.0941 16.8787C14.9868 16.8787 14.8795 16.8392 14.7948 16.7544C14.631 16.5906 14.631 16.3195 14.7948 16.1557L15.6251 15.3254L14.7948 14.4951C14.631 14.3312 14.631 14.0601 14.7948 13.8963C14.9586 13.7325 15.2297 13.7325 15.3935 13.8963L16.5232 15.026C16.687 15.1898 16.687 15.4609 16.5232 15.6247ZM17.6359 12.0775H16.5062C15.6477 12.0775 14.9529 11.3828 14.9529 10.5242V9.39453C14.9529 9.16294 15.145 8.9709 15.3765 8.9709C15.6081 8.9709 15.8002 9.16294 15.8002 9.39453V10.5242C15.8002 10.914 16.1165 11.2303 16.5062 11.2303H17.6359C17.8675 11.2303 18.0595 11.4223 18.0595 11.6539C18.0595 11.8855 17.8675 12.0775 17.6359 12.0775Z" fill="#1B1B1B"/>
</svg>
