<svg width="33" height="33" viewBox="0 0 33 33" fill="none" xmlns="http://www.w3.org/2000/svg">
<g clip-path="url(#clip0_5763_31685)">
<path d="M16.5 32.5C25.3366 32.5 32.5 25.3366 32.5 16.5C32.5 7.66344 25.3366 0.5 16.5 0.5C7.66344 0.5 0.5 7.66344 0.5 16.5C0.5 25.3366 7.66344 32.5 16.5 32.5Z" fill="#F0F0F0"/>
<path d="M32.5002 16.5001C32.5002 9.62061 28.1582 3.75593 22.0654 1.49524V31.5049C28.1582 29.2442 32.5002 23.3795 32.5002 16.5001Z" fill="#D80027"/>
<path d="M0.5 16.5001C0.5 23.3795 4.84206 29.2442 10.9348 31.5049V1.49524C4.84206 3.75593 0.5 9.62061 0.5 16.5001Z" fill="#0052B4"/>
</g>
<defs>
<clipPath id="clip0_5763_31685">
<rect width="32" height="32" fill="white" transform="translate(0.5 0.5)"/>
</clipPath>
</defs>
</svg>
