<svg width="33" height="33" viewBox="0 0 33 33" fill="none" xmlns="http://www.w3.org/2000/svg">
<g clip-path="url(#clip0_5763_31667)">
<path d="M0.5 16.5C0.5 18.4571 0.852063 20.3319 1.49519 22.0652L16.5 22.7609L31.5048 22.0653C32.148 20.3319 32.5 18.4571 32.5 16.5C32.5 14.5429 32.148 12.6681 31.5048 10.9348L16.5 10.2391L1.49519 10.9348C0.852063 12.6681 0.5 14.5429 0.5 16.5H0.5Z" fill="#FFDA44"/>
<path d="M16.4999 0.5C9.62049 0.5 3.7558 4.842 1.49512 10.9348H31.5048C29.2441 4.842 23.3794 0.5 16.4999 0.5Z" fill="#D80027"/>
<path d="M31.5047 22.0652H1.49512C3.7558 28.1579 9.62049 32.5 16.4999 32.5C23.3794 32.5 29.2441 28.1579 31.5047 22.0652Z" fill="#496E2D"/>
<path d="M16.4999 10.9348L17.8812 15.1861H22.3517L18.7353 17.8138L20.1165 22.0652L16.4999 19.4377L12.8834 22.0652L14.2649 17.8138L10.6484 15.1861H15.1187L16.4999 10.9348Z" fill="black"/>
</g>
<defs>
<clipPath id="clip0_5763_31667">
<rect width="32" height="32" fill="white" transform="translate(0.5 0.5)"/>
</clipPath>
</defs>
</svg>
