<svg width="33" height="33" viewBox="0 0 33 33" fill="none" xmlns="http://www.w3.org/2000/svg">
<g clip-path="url(#clip0_5763_31703)">
<path d="M16.5 32.5C25.3366 32.5 32.5 25.3366 32.5 16.5C32.5 7.66344 25.3366 0.5 16.5 0.5C7.66344 0.5 0.5 7.66344 0.5 16.5C0.5 25.3366 7.66344 32.5 16.5 32.5Z" fill="#F0F0F0"/>
<path d="M16.4999 0.5C9.62049 0.5 3.7558 4.842 1.49512 10.9348H31.5048C29.2441 4.842 23.3794 0.5 16.4999 0.5Z" fill="#D80027"/>
<path d="M16.4999 32.5C23.3794 32.5 29.2441 28.158 31.5047 22.0652H1.49512C3.7558 28.158 9.62049 32.5 16.4999 32.5Z" fill="#338AF3"/>
</g>
<defs>
<clipPath id="clip0_5763_31703">
<rect width="32" height="32" fill="white" transform="translate(0.5 0.5)"/>
</clipPath>
</defs>
</svg>
