<svg width="100" height="101" viewBox="0 0 100 101" fill="none" xmlns="http://www.w3.org/2000/svg">
<rect x="0.00195312" y="0.400391" width="100" height="100" rx="50" fill="#E6EBF9"/>
<rect x="7.00195" y="7.40039" width="86" height="86" rx="43" fill="#B0C0EC"/>
<g opacity="0.7">
<rect x="15.002" y="17.4004" width="70" height="70" rx="35" fill="#0035C3"/>
<path fill-rule="evenodd" clip-rule="evenodd" d="M42.6686 42.7756C42.6686 38.9786 45.7467 35.9006 49.5436 35.9006C53.3406 35.9006 56.4186 38.9786 56.4186 42.7756V44.1506C56.4186 45.1631 57.2394 45.9839 58.252 45.9839C59.2645 45.9839 60.0853 45.1631 60.0853 44.1506V42.7756C60.0853 36.9536 55.3656 32.2339 49.5436 32.2339C43.7216 32.2339 39.002 36.9536 39.002 42.7756V48.7339C35.9644 48.7339 33.502 51.1963 33.502 54.2339V65.2339C33.502 68.2715 35.9644 70.7339 39.002 70.7339H61.002C64.0395 70.7339 66.502 68.2715 66.502 65.2339V54.2339C66.502 51.1963 64.0395 48.7339 61.002 48.7339H42.6686V42.7756ZM50.002 56.0672C51.0145 56.0672 51.8353 56.888 51.8353 57.9006V61.5672C51.8353 62.5797 51.0145 63.4006 50.002 63.4006C48.9894 63.4006 48.1686 62.5797 48.1686 61.5672V57.9006C48.1686 56.888 48.9894 56.0672 50.002 56.0672Z" fill="white"/>
</g>
</svg>
