<svg width="28" height="28" viewBox="0 0 28 28" fill="none" xmlns="http://www.w3.org/2000/svg">
<circle cx="14.2994" cy="13.6739" r="13.5562" fill="#D2F1DE"/>
<path d="M16.6675 8.02466H11.9341C9.87805 8.02466 8.65234 9.25037 8.65234 11.3064V16.0341C8.65234 18.0958 9.87805 19.3215 11.9341 19.3215H16.6618C18.7178 19.3215 19.9435 18.0958 19.9435 16.0398V11.3064C19.9492 9.25037 18.7235 8.02466 16.6675 8.02466ZM11.8324 17.1469C11.8324 17.3784 11.6404 17.5705 11.4088 17.5705C11.1772 17.5705 10.9851 17.3784 10.9851 17.1469V15.9776C10.9851 15.7461 11.1772 15.554 11.4088 15.554C11.6404 15.554 11.8324 15.7461 11.8324 15.9776V17.1469ZM14.7244 17.1469C14.7244 17.3784 14.5324 17.5705 14.3008 17.5705C14.0692 17.5705 13.8771 17.3784 13.8771 17.1469V14.8028C13.8771 14.5712 14.0692 14.3791 14.3008 14.3791C14.5324 14.3791 14.7244 14.5712 14.7244 14.8028V17.1469ZM17.6164 17.1469C17.6164 17.3784 17.4243 17.5705 17.1928 17.5705C16.9612 17.5705 16.7691 17.3784 16.7691 17.1469V13.6335C16.7691 13.402 16.9612 13.2099 17.1928 13.2099C17.4243 13.2099 17.6164 13.402 17.6164 13.6335V17.1469ZM17.6164 11.8486C17.6164 12.0802 17.4243 12.2723 17.1928 12.2723C16.9612 12.2723 16.7691 12.0802 16.7691 11.8486V11.3007C15.3288 12.7806 13.5269 13.8256 11.5104 14.3283C11.4766 14.3396 11.4427 14.3396 11.4088 14.3396C11.2167 14.3396 11.0473 14.2097 10.9964 14.0176C10.94 13.7917 11.0755 13.5601 11.3071 13.5036C13.2106 13.0292 14.9051 12.0294 16.2495 10.6173H15.5434C15.3118 10.6173 15.1198 10.4252 15.1198 10.1937C15.1198 9.96207 15.3118 9.77002 15.5434 9.77002H17.1984C17.221 9.77002 17.2379 9.78132 17.2605 9.78132C17.2888 9.78697 17.317 9.78697 17.3453 9.79826C17.3735 9.80956 17.3961 9.82651 17.4243 9.84345C17.4413 9.85475 17.4582 9.8604 17.4752 9.87169C17.4808 9.87734 17.4808 9.88299 17.4865 9.88299C17.5091 9.90558 17.526 9.92818 17.543 9.95077C17.5599 9.97336 17.5769 9.99031 17.5825 10.0129C17.5938 10.0355 17.5938 10.0581 17.5994 10.0863C17.6051 10.1146 17.6164 10.1428 17.6164 10.1767C17.6164 10.1824 17.622 10.188 17.622 10.1937V11.8486H17.6164Z" fill="#1B1B1B"/>
</svg>
